<?xml version="1.0" encoding="UTF-8" standalone="no"?><!DOCTYPE svg PUBLIC "-//W3C//DTD SVG 1.1//EN" "http://www.w3.org/Graphics/SVG/1.1/DTD/svg11.dtd"><svg width="100%" height="100%" viewBox="0 0 6373 2100" version="1.1" xmlns="http://www.w3.org/2000/svg" xmlns:xlink="http://www.w3.org/1999/xlink" xml:space="preserve" xmlns:serif="http://www.serif.com/" style="fill-rule:evenodd;clip-rule:evenodd;stroke-linejoin:round;stroke-miterlimit:2;"><path d="M4653.77,2291.94l2059.41,-1009.42l-971.877,-1956.76c-2.038,5.187 -4.375,10.401 -7.037,15.654c-30.952,61.13 -100.02,107.761 -100.29,175.769c-0.237,60.321 54.263,104.312 102.338,141.154c48.071,36.845 99.33,87.325 89.172,146.922c-12.025,70.543 -101.339,102.829 -130.652,168.458c-18.885,42.294 -9.53,91.022 3.693,135.009c13.221,43.984 30.214,88.602 25.623,134.443c-10.232,102.106 -162.15,131.623 -138.273,248.267c4.58,22.39 16.992,42.832 29.275,63.016c17.004,27.934 33.758,55.377 29.157,86.782c-10.352,70.818 -112.199,84.912 -155.594,142.636c-58.764,78.153 11.573,200.02 -42.592,281.307c-51.778,77.719 -185.323,69.262 -232.01,150.013c-35.749,61.827 -2.07,148.96 -47.337,204.471c-48.121,59.017 -153.144,41.701 -202.081,100.074c-72.517,86.5 40.389,221.853 -40.912,305.375c-26.51,27.23 -64.961,39.917 -102.663,45.685c-37.704,5.765 -76.126,5.621 -113.696,12.213c-77.579,13.596 -149.65,56.973 -197.793,118.719l144.143,290.215Zm551.359,-3871.98c37.436,13.875 77.395,28.797 111.074,49.916l-105.79,-212.997l-148.422,72.749c32.14,43.354 89.78,70.551 143.138,90.332Zm269.383,528.285c33.56,28.231 82.067,61.952 129.184,100.463l-207.724,-418.228c-1.34,15.997 -3.969,32.018 -7.038,47.659c-8.684,44.271 -20.695,88.979 -15.981,133.686c1.654,15.703 6.052,29.745 12.416,42.558c18.999,38.262 55.547,65.6 89.143,93.862Z" style="fill:#6400e4;fill-rule:nonzero;"/><path d="M6960.85,-361.24c-157.784,-103.159 -331.697,-182.236 -478.576,-300.4l-572.987,-159.159c-78.761,49.864 -134.983,133.966 -150.968,225.804c-15.981,91.836 8.532,189.984 65.821,263.524c58.152,74.647 153.407,138.916 146.895,233.317c-5.116,74.157 -63.253,139.394 -58.41,214.406c4.493,69.566 75.085,93.772 91.673,156.672c9.021,34.203 -6.417,69.931 -24.74,100.196c-37.513,61.967 -70.323,119.109 -32.604,189.166c12.962,24.078 28.751,47.622 32.819,74.66c11.361,75.561 -95.251,77.45 -104.441,145.631c-12.092,89.697 146.648,118.446 108.487,212.651c-12.912,31.875 -51.589,50.744 -84.656,41.306c-26.022,-7.432 -49.846,-29.891 -76.131,-23.46c-35.253,8.626 -43.996,62.315 -79.287,70.795c-18.99,4.565 -38.123,-6.266 -53.57,-18.213c-15.451,-11.947 -30.718,-25.987 -49.952,-29.358c-52.702,-9.249 -94.823,64.936 -146.765,52.077c-9.695,-2.408 -18.481,-7.796 -28.242,-9.954c-7.668,-1.692 -15.039,-0.633 -19.793,2.721c-1.67,5.578 -0.338,12.9 3.708,19.636c5.142,8.571 13.046,15.185 18.404,23.619c28.692,45.163 -28.272,108.671 -2.763,155.701c9.312,17.171 27.474,27.188 43.704,38.041c16.24,10.851 32.583,25.558 34.29,45.01c3.164,36.157 -44.967,61.5 -41.948,97.672c2.255,26.966 31.114,42.424 46.427,64.737c19.452,28.353 13.85,71.024 -12.274,93.387c-79.269,67.881 -171.359,-92.052 -249.663,-27.345c-36.63,30.266 -24.597,95.82 -61.584,125.647c-40.175,32.391 -99.023,-3.001 -150.464,1.112c-44.056,3.526 -79.682,36.281 -109.348,69.036c-29.665,32.755 -59.389,68.882 -101.163,83.306c-59.206,20.434 -70.24,-27.387 -114.828,-40.51c-43.516,-12.815 -103.426,7.734 -138.578,32.914c-39.977,28.634 -69.755,72.225 -115.196,91.019c-87.444,36.16 -178.641,-33.754 -267.889,-65.184c-87.928,-30.963 -188.78,-23.032 -270.788,21.297c-82.005,44.323 -143.888,124.351 -166.153,214.873l332.911,492.756c158.699,101.739 288.927,241.532 436.857,358.378c147.93,116.846 325.598,213.724 513.916,205.141c194.897,-8.882 367.391,-128.986 506.837,-265.444c279.722,-273.723 474.52,-633.061 551.237,-1016.84c22.218,-111.146 33.633,-231.635 -16.232,-333.424c-0.736,-1.492 -1.513,-2.949 -2.265,-4.425c1.638,0.244 3.272,0.517 4.919,0.736c112.353,14.957 222.981,-34.139 321.309,-90.51c339.54,-194.65 618.395,-493.493 789.093,-845.678c85.095,-175.563 144.193,-377.274 90.704,-564.902c-51.678,-181.293 -199.971,-318.984 -357.753,-422.139Z" style="fill:#6400e4;fill-rule:nonzero;"/><path d="M4861.91,2511.05l2159.28,-773.043l-747.198,-2053.08c-2.605,4.927 -5.51,9.847 -8.742,14.769c-37.588,57.291 -111.433,95.913 -119.298,163.465c-6.974,59.918 42.27,109.722 85.929,151.704c43.654,41.984 88.952,97.875 72.2,155.963c-19.83,68.759 -112.192,90.865 -148.652,152.809c-23.492,39.919 -19.639,89.387 -11.413,134.576c8.225,45.186 20.127,91.422 10.444,136.464c-21.575,100.324 -175.839,112.685 -165.143,231.266c2.05,22.761 12.101,44.462 22.053,65.892c13.776,29.659 27.36,58.802 19.279,89.496c-18.198,69.218 -120.982,71.847 -170.554,124.361c-67.127,71.1 -10.845,200.061 -73.751,274.789c-60.137,71.448 -191.901,48.125 -247.317,123.155c-42.432,57.446 -18.697,147.797 -69.882,197.903c-54.412,53.272 -156.844,24.332 -211.995,76.872c-81.727,77.858 15.351,224.977 -74.771,298.893c-29.386,24.099 -69.013,32.41 -107.124,33.931c-38.112,1.517 -76.277,-2.919 -114.349,-0.565c-78.611,4.844 -155.078,39.898 -209.817,95.88l110.82,304.501Zm980.458,-3786.15c35.652,17.971 73.693,37.263 104.803,62.012l-81.334,-223.482l-155.619,55.714c27.095,46.672 81.336,80.139 132.15,105.756Zm208.681,555.073c30.196,31.803 74.632,70.731 117.152,114.265l-159.702,-438.815c-3.119,15.746 -7.521,31.374 -12.318,46.573c-13.576,43.025 -30.507,86.111 -30.816,131.065c-0.111,15.789 2.691,30.235 7.584,43.678c14.605,40.145 47.871,71.395 78.1,103.234Z" style="fill:#172d8f;fill-rule:nonzero;"/><path d="M6382.2,2331.82l335.517,-1752.77c-36.876,8.39 -71.366,27.431 -96.917,55.357c-47.562,51.981 -80.518,142.642 -53.668,207.784c-52.846,26.445 -92.865,77.245 -106.203,134.814c-13.334,57.57 1.51,101.198 37.336,148.19c-87.118,-25.16 -187.555,4.143 -247.475,72.21c-59.928,68.06 -98.285,172.479 -62.282,255.71c-44.14,-1.216 -88.384,18.832 -116.572,52.816c-28.187,33.984 -39.705,81.173 -30.347,124.325c-45.417,-5.861 -76.731,52.506 -82.521,97.937c-101.588,-38.009 -221.833,-21.421 -309.33,42.677c-87.497,64.093 -147.097,156.79 -141.494,265.112c-63.969,-28.545 -141.798,-23.635 -201.67,12.725c-26.707,16.218 -49.515,38.491 -66.952,64.402l1142.58,218.713Z" style="fill:#141c3a;fill-rule:nonzero;"/><path d="M6107.8,1822.14l9.73,11.81c3.376,4.099 7.801,7.13 12.776,8.736l14.318,4.621c0.556,0.18 0.705,0.909 0.263,1.293l-11.364,9.858c-3.95,3.42 -6.833,7.948 -8.336,13.035l-4.326,14.684c-0.166,0.561 -0.876,0.706 -1.248,0.255l-9.731,-11.817c-3.369,-4.094 -7.808,-7.129 -12.769,-8.731l-14.33,-4.618c-0.55,-0.181 -0.699,-0.911 -0.264,-1.293l11.377,-9.861c3.936,-3.423 6.834,-7.948 8.329,-13.04l4.327,-14.678c0.164,-0.567 0.875,-0.711 1.248,-0.254" style="fill:#fff;fill-rule:nonzero;"/><path d="M5523.28,1228.39l9.73,11.81c3.376,4.099 7.808,7.129 12.77,8.737l14.33,4.618c0.55,0.181 0.699,0.911 0.263,1.293l-11.377,9.862c-3.937,3.416 -6.826,7.946 -8.329,13.033l-4.326,14.684c-0.166,0.561 -0.876,0.705 -1.248,0.255l-9.731,-11.817c-3.375,-4.093 -7.808,-7.129 -12.769,-8.731l-14.33,-4.618c-0.551,-0.181 -0.699,-0.911 -0.264,-1.293l11.377,-9.861c3.936,-3.423 6.827,-7.947 8.328,-13.04l4.328,-14.678c0.164,-0.567 0.875,-0.712 1.248,-0.254" style="fill:#fff;fill-rule:nonzero;"/><path d="M5869.95,147.502l9.731,11.817c3.375,4.092 7.807,7.122 12.769,8.73l14.33,4.618c0.55,0.181 0.7,0.918 0.264,1.293l-11.377,9.862c-3.936,3.423 -6.827,7.946 -8.329,13.04l-4.327,14.677c-0.164,0.567 -0.869,0.711 -1.248,0.255l-9.73,-11.811c-3.376,-4.099 -7.802,-7.13 -12.77,-8.737l-14.324,-4.619c-0.549,-0.175 -0.699,-0.911 -0.263,-1.293l11.37,-9.86c3.942,-3.425 6.827,-7.947 8.33,-13.034l4.326,-14.684c0.172,-0.562 0.876,-0.705 1.248,-0.254" style="fill:#fff;fill-rule:nonzero;"/><path d="M6283,741.879l9.949,11.773c3.445,4.078 7.992,7.084 13.101,8.662l14.721,4.539c0.563,0.178 0.713,0.915 0.264,1.293l-11.768,9.941c-4.083,3.453 -7.089,8 -8.661,13.108l-4.545,14.722c-0.177,0.569 -0.907,0.718 -1.287,0.262l-9.947,-11.766c-3.453,-4.083 -7.994,-7.091 -13.103,-8.669l-14.727,-4.537c-0.562,-0.172 -0.712,-0.909 -0.263,-1.293l11.773,-9.943c4.083,-3.453 7.083,-7.998 8.663,-13.101l4.544,-14.728c0.172,-0.562 0.902,-0.711 1.286,-0.263" style="fill:#fff;fill-rule:nonzero;"/></svg>