<?xml version="1.0" encoding="UTF-8" standalone="no"?><!DOCTYPE svg PUBLIC "-//W3C//DTD SVG 1.1//EN" "http://www.w3.org/Graphics/SVG/1.1/DTD/svg11.dtd"><svg width="100%" height="100%" viewBox="0 0 1426 1045" version="1.1" xmlns="http://www.w3.org/2000/svg" xmlns:xlink="http://www.w3.org/1999/xlink" xml:space="preserve" xmlns:serif="http://www.serif.com/" style="fill-rule:evenodd;clip-rule:evenodd;stroke-miterlimit:10;"><path d="M22.319,825.432l0,-6.662" style="fill:none;fill-rule:nonzero;stroke:#0024a8;stroke-width:4.44px;"/><path d="M651.992,812.875l-27.504,190.796l326.592,0l-30.942,-190.796l-268.146,0Z" style="fill:#edeeee;fill-rule:nonzero;"/><rect x="511.045" y="1031.17" width="553.483" height="13.75" style="fill:#b4baba;"/><path d="M624.49,1003.67l-113.446,27.504l553.483,0l-113.45,-27.504l-326.587,0Z" style="fill:#d9dedf;fill-rule:nonzero;"/><path d="M1425.82,714.629l-1276.06,0l0,-661.779c0,-29.188 23.659,-52.85 52.846,-52.85l1170.36,-0c29.187,-0 52.85,23.662 52.85,52.85l-0,661.779Z" style="fill-rule:nonzero;"/><path d="M1373.19,836.94l-1170.8,-0c-29.067,-0 -52.63,-23.563 -52.63,-52.63l0,-69.679l1276.06,0l-0,69.679c-0,29.067 -23.563,52.63 -52.629,52.63" style="fill:#d9dedf;fill-rule:nonzero;"/><rect x="196.837" y="41.253" width="1181.9" height="629.112" style="fill:#fff;"/><path d="M812.708,770.924c0,13.762 -11.158,24.921 -24.921,24.921c-13.766,-0 -24.925,-11.159 -24.925,-24.921c0,-13.767 11.159,-24.925 24.925,-24.925c13.763,-0 24.921,11.158 24.921,24.925" style="fill-rule:nonzero;"/><rect x="383.17" y="113.061" width="418.513" height="488.504"/><rect x="443.654" y="179.678" width="297.542" height="26.646" style="fill:#fff;"/><rect x="443.654" y="228.528" width="297.542" height="26.646" style="fill:#fff;"/><rect x="443.654" y="277.378" width="297.542" height="26.646" style="fill:#fff;"/><rect x="443.654" y="326.228" width="297.542" height="26.646" style="fill:#fff;"/><rect x="443.654" y="375.078" width="297.542" height="26.646" style="fill:#fff;"/><rect x="443.654" y="423.928" width="297.542" height="26.646" style="fill:#fff;"/><rect x="443.654" y="472.778" width="297.542" height="26.646" style="fill:#fff;"/><rect x="443.654" y="521.624" width="297.542" height="26.65" style="fill:#fff;"/><path d="M967.38,309.406c-22.596,0 -40.913,-18.316 -40.913,-40.908c0,-22.6 18.317,-40.917 40.913,-40.917c22.595,0 40.912,18.317 40.912,40.917c0,22.592 -18.317,40.908 -40.912,40.908m116.095,-19.15l0,-42.571l-26.491,0c-2.238,-9.675 -5.984,-18.775 -11,-27.016l18.879,-18.879l-30.1,-30.1l-18.733,18.729c-8.192,-5.109 -17.246,-8.963 -26.888,-11.304l0,-26.717l-42.567,-0l0,26.496c-9.679,2.233 -18.783,5.975 -27.025,11l-18.879,-18.875l-30.096,30.096l18.73,18.729c-5.113,8.196 -8.971,17.246 -11.309,26.891l-26.712,0l-0,42.567l26.491,0c2.238,9.679 5.984,18.779 11.009,27.021l-18.884,18.875l30.1,30.1l18.734,-18.733c8.187,5.116 17.237,8.975 26.883,11.312l0,26.713l42.571,-0l-0,-26.492c9.675,-2.238 18.779,-5.979 27.021,-11.004l18.879,18.879l30.096,-30.1l-18.729,-18.733c5.112,-8.192 8.97,-17.238 11.308,-26.884l26.712,0Z" style="fill:#f37b20;fill-rule:nonzero;"/><path d="M1150.85,435.883c-17.791,0 -32.212,-14.42 -32.212,-32.204c-0,-17.796 14.421,-32.212 32.212,-32.212c17.788,-0 32.209,14.416 32.209,32.212c-0,17.784 -14.421,32.204 -32.209,32.204m91.4,-15.075l0,-33.516l-20.854,-0c-1.762,-7.617 -4.712,-14.779 -8.662,-21.271l14.858,-14.863l-23.696,-23.695l-14.75,14.745c-6.446,-4.025 -13.571,-7.062 -21.167,-8.904l0,-21.033l-33.512,-0l-0,20.858c-7.621,1.763 -14.783,4.709 -21.271,8.663l-14.867,-14.859l-23.695,23.696l14.745,14.746c-4.025,6.45 -7.058,13.571 -8.904,21.167l-21.029,-0l0,33.516l20.854,0c1.763,7.617 4.713,14.784 8.667,21.271l-14.863,14.863l23.7,23.696l14.746,-14.75c6.446,4.029 13.567,7.066 21.167,8.908l-0,21.033l33.517,0l-0,-20.858c7.616,-1.767 14.779,-4.708 21.266,-8.663l14.867,14.863l23.696,-23.7l-14.746,-14.75c4.025,-6.446 7.058,-13.567 8.904,-21.163l21.029,0Z" style="fill:#f37b20;fill-rule:nonzero;"/><path d="M993.934,509.046c-12.621,0 -22.854,-10.229 -22.854,-22.85c-0,-12.625 10.233,-22.854 22.854,-22.854c12.616,0 22.85,10.229 22.85,22.854c-0,12.621 -10.234,22.85 -22.85,22.85m64.846,-10.696l-0,-23.775l-14.796,0c-1.25,-5.408 -3.342,-10.491 -6.146,-15.095l10.546,-10.546l-16.813,-16.813l-10.466,10.463c-4.575,-2.854 -9.63,-5.009 -15.017,-6.317l-0,-14.921l-23.779,0l-0,14.796c-5.409,1.25 -10.492,3.342 -15.092,6.15l-10.546,-10.546l-16.816,16.813l10.466,10.462c-2.854,4.575 -5.012,9.629 -6.316,15.021l-14.921,0l-0,23.775l14.796,0c1.25,5.408 3.341,10.488 6.15,15.096l-10.546,10.542l16.812,16.812l10.467,-10.467c4.571,2.863 9.625,5.017 15.012,6.321l0,14.925l23.78,0l-0,-14.8c5.408,-1.25 10.491,-3.337 15.091,-6.146l10.546,10.546l16.817,-16.816l-10.463,-10.463c2.854,-4.575 5.009,-9.625 6.313,-15.017l14.921,0Z" style="fill:#f37b20;fill-rule:nonzero;"/><g opacity="0.24"><path d="M757.72,41.253l-254.096,629.112l140.646,0l251.82,-629.112l-138.37,-0Z" style="fill:#fff;fill-rule:nonzero;"/></g><g opacity="0.24"><path d="M983.582,41.253l-237.242,629.112l56.53,0l241.358,-629.112l-60.646,-0Z" style="fill:#fff;fill-rule:nonzero;"/></g></svg>