<?xml version="1.0" encoding="iso-8859-1"?>
<!-- Generator: Adobe Illustrator 19.0.0, SVG Export Plug-In . SVG Version: 6.00 Build 0)  -->
<svg version="1.1" id="Capa_1" xmlns="http://www.w3.org/2000/svg" xmlns:xlink="http://www.w3.org/1999/xlink" x="0px" y="0px"
	 viewBox="0 0 512.008 512.008" style="enable-background:new 0 0 512.008 512.008;" xml:space="preserve">
<path style="fill:#2196F3;" d="M501.342,53.256c-5.891,0-10.667,4.776-10.667,10.667c-0.153,135.43-109.903,245.18-245.333,245.333
	H36.424l109.803-109.781c4.092-4.237,3.975-10.99-0.262-15.083c-4.134-3.992-10.687-3.992-14.82,0l-128,128
	c-4.171,4.16-4.179,10.914-0.019,15.085c0.006,0.006,0.013,0.013,0.019,0.019l128,128c4.093,4.237,10.845,4.354,15.083,0.262
	c4.237-4.093,4.354-10.845,0.262-15.083c-0.086-0.089-0.173-0.176-0.262-0.262L36.424,330.589h208.917
	c147.208-0.165,266.502-119.459,266.667-266.667C512.008,58.032,507.233,53.256,501.342,53.256z"/>
<path d="M138.675,458.589c-2.831,0.005-5.548-1.115-7.552-3.115l-128-128c-4.164-4.165-4.164-10.917,0-15.083l128-128
	c4.237-4.092,10.99-3.975,15.083,0.262c3.992,4.134,3.992,10.687,0,14.82L25.758,319.923l120.448,120.448
	c4.171,4.16,4.179,10.914,0.019,15.085C144.224,457.461,141.508,458.589,138.675,458.589z"/>
<path d="M245.342,330.589H10.675c-5.891,0-10.667-4.776-10.667-10.667c0-5.891,4.776-10.667,10.667-10.667h234.667
	c135.431-0.153,245.181-109.903,245.333-245.333c0-5.891,4.776-10.667,10.667-10.667s10.667,4.776,10.667,10.667
	C511.844,211.13,392.549,330.425,245.342,330.589z"/>
<g>
</g>
<g>
</g>
<g>
</g>
<g>
</g>
<g>
</g>
<g>
</g>
<g>
</g>
<g>
</g>
<g>
</g>
<g>
</g>
<g>
</g>
<g>
</g>
<g>
</g>
<g>
</g>
<g>
</g>
</svg>
