<?xml version="1.0" encoding="UTF-8" standalone="no"?><!DOCTYPE svg PUBLIC "-//W3C//DTD SVG 1.1//EN" "http://www.w3.org/Graphics/SVG/1.1/DTD/svg11.dtd"><svg width="100%" height="100%" viewBox="0 0 6373 2100" version="1.1" xmlns="http://www.w3.org/2000/svg" xmlns:xlink="http://www.w3.org/1999/xlink" xml:space="preserve" xmlns:serif="http://www.serif.com/" style="fill-rule:evenodd;clip-rule:evenodd;stroke-linejoin:round;stroke-miterlimit:2;"><path d="M4653.77,2291.94l2059.41,-1009.42l-971.877,-1956.76c-2.038,5.187 -4.375,10.401 -7.037,15.654c-30.952,61.13 -100.02,107.761 -100.29,175.769c-0.237,60.321 54.263,104.312 102.338,141.154c48.071,36.845 99.33,87.325 89.172,146.922c-12.025,70.543 -101.339,102.829 -130.652,168.458c-18.885,42.294 -9.53,91.022 3.693,135.009c13.221,43.984 30.214,88.602 25.623,134.443c-10.232,102.106 -162.15,131.623 -138.273,248.267c4.58,22.39 16.992,42.832 29.275,63.016c17.004,27.934 33.758,55.377 29.157,86.782c-10.352,70.818 -112.199,84.912 -155.594,142.636c-58.764,78.153 11.573,200.02 -42.592,281.307c-51.778,77.719 -185.323,69.262 -232.01,150.013c-35.749,61.827 -2.07,148.96 -47.337,204.471c-48.121,59.017 -153.144,41.701 -202.081,100.074c-72.517,86.5 40.389,221.853 -40.912,305.375c-26.51,27.23 -64.961,39.917 -102.663,45.685c-37.704,5.765 -76.126,5.621 -113.696,12.213c-77.579,13.596 -149.65,56.973 -197.793,118.719l144.143,290.215Zm551.359,-3871.98c37.436,13.875 77.395,28.797 111.074,49.916l-105.79,-212.997l-148.422,72.749c32.14,43.354 89.78,70.551 143.138,90.332Zm269.383,528.285c33.56,28.231 82.067,61.952 129.184,100.463l-207.724,-418.228c-1.34,15.997 -3.969,32.018 -7.038,47.659c-8.684,44.271 -20.695,88.979 -15.981,133.686c1.654,15.703 6.052,29.745 12.416,42.558c18.999,38.262 55.547,65.6 89.143,93.862Z" style="fill:#6400e4;fill-rule:nonzero;"/><path d="M7069.28,-318.981c-157.783,-103.159 -331.696,-182.237 -478.575,-300.401l-572.987,-159.159c-78.761,49.865 -134.983,133.967 -150.968,225.804c-15.981,91.836 8.532,189.985 65.821,263.524c58.152,74.648 153.407,138.916 146.895,233.317c-5.116,74.158 -63.253,139.395 -58.41,214.407c4.493,69.565 75.085,93.771 91.673,156.672c9.021,34.203 -6.417,69.93 -24.74,100.196c-37.513,61.966 -70.323,119.109 -32.604,189.166c12.962,24.078 28.751,47.621 32.819,74.66c11.361,75.561 -95.251,77.45 -104.441,145.631c-12.092,89.696 146.648,118.446 108.487,212.65c-12.912,31.875 -51.589,50.745 -84.656,41.306c-26.022,-7.432 -49.846,-29.891 -76.131,-23.459c-35.253,8.626 -43.996,62.314 -79.287,70.794c-18.99,4.566 -38.123,-6.265 -53.57,-18.212c-15.451,-11.947 -30.718,-25.987 -49.952,-29.359c-52.703,-9.249 -94.823,64.937 -146.765,52.077c-9.695,-2.407 -18.481,-7.796 -28.242,-9.953c-7.668,-1.693 -15.039,-0.634 -19.793,2.72c-1.67,5.578 -0.338,12.9 3.708,19.637c5.142,8.571 13.045,15.185 18.404,23.619c28.691,45.163 -28.273,108.67 -2.763,155.701c9.312,17.171 27.474,27.188 43.704,38.04c16.24,10.851 32.583,25.558 34.29,45.01c3.164,36.158 -44.967,61.501 -41.948,97.673c2.255,26.966 31.114,42.423 46.427,64.736c19.452,28.353 13.85,71.025 -12.274,93.388c-79.269,67.881 -171.359,-92.053 -249.663,-27.346c-36.63,30.266 -24.597,95.82 -61.584,125.647c-40.175,32.392 -99.023,-3 -150.464,1.113c-44.056,3.526 -79.682,36.281 -109.348,69.036c-29.665,32.755 -59.389,68.882 -101.163,83.305c-59.206,20.434 -70.24,-27.386 -114.828,-40.509c-43.516,-12.815 -103.426,7.734 -138.578,32.914c-39.977,28.633 -69.755,72.225 -115.196,91.018c-87.444,36.16 -178.641,-33.753 -267.889,-65.183c-87.929,-30.964 -188.78,-23.032 -270.788,21.296c-82.005,44.324 -143.888,124.352 -166.153,214.873l332.911,492.756c158.699,101.739 288.927,241.533 436.857,358.379c147.93,116.846 325.597,213.723 513.916,205.14c194.897,-8.882 367.391,-128.985 506.837,-265.443c279.722,-273.724 474.52,-633.061 551.237,-1016.84c22.218,-111.147 33.633,-231.636 -16.232,-333.424c-0.736,-1.492 -1.513,-2.95 -2.265,-4.425c1.638,0.244 3.271,0.516 4.919,0.736c112.353,14.957 222.981,-34.139 321.309,-90.51c339.54,-194.651 618.394,-493.494 789.093,-845.678c85.095,-175.563 144.193,-377.274 90.704,-564.903c-51.678,-181.292 -199.971,-318.983 -357.754,-422.138Z" style="fill:#6400e4;fill-rule:nonzero;"/><path d="M4809.41,221.92l-1392.35,1639.49l1568.75,1318.17c-0.191,-5.224 -0.135,-10.582 0.185,-16.095c3.706,-64.155 45.616,-130.124 20.366,-188.695c-22.398,-51.95 -85.737,-69.352 -140.874,-83.013c-55.134,-13.665 -118.119,-37.86 -131.715,-92.904c-16.094,-65.155 48.597,-126.378 49.208,-193.785c0.389,-43.439 -25.911,-81.827 -53.761,-114.691c-27.847,-32.861 -59.175,-64.854 -72.404,-105.987c-29.461,-91.619 90.091,-173.918 25.858,-265.256c-12.327,-17.534 -30.658,-30.458 -48.782,-43.209c-25.084,-17.645 -49.772,-34.962 -57.583,-63.686c-17.635,-64.764 64.647,-115.043 80.328,-180.93c21.239,-89.211 -84.895,-167.632 -68.784,-257.813c15.396,-86.22 133.38,-128.986 143.262,-215.905c7.57,-66.55 -54.034,-128.844 -35.915,-193.531c19.259,-68.769 116.041,-93.233 136.242,-161.755c29.937,-101.54 -117.849,-175.605 -79.246,-277.875c12.589,-33.344 40.894,-58.659 71.147,-77.745c30.256,-19.084 63.343,-33.356 93.174,-53.1c61.604,-40.757 107.315,-105.055 125.57,-176.179l-232.667,-195.504Zm976.754,3535.52c-37.385,2.098 -77.33,4.242 -114.199,-1.296l170.761,143.485l100.347,-118.158c-43.876,-25.231 -103.623,-27.017 -156.909,-24.031Zm-429.545,-353.258c-39.431,-11.696 -93.769,-22.513 -148.707,-37.968l335.295,281.738c-4.841,-14.255 -8.584,-29.014 -11.806,-43.611c-9.122,-41.316 -15.547,-84.255 -36.351,-120.925c-7.306,-12.881 -16.348,-23.305 -26.62,-31.936c-30.671,-25.778 -72.336,-35.587 -111.811,-47.298Z" style="fill:#fff;fill-rule:nonzero;"/><path d="M5138.19,214.25l-1392.35,1639.49l1568.75,1318.17c-0.191,-5.223 -0.135,-10.582 0.185,-16.095c3.706,-64.154 45.616,-130.124 20.366,-188.695c-22.398,-51.95 -85.737,-69.351 -140.874,-83.013c-55.134,-13.665 -118.119,-37.859 -131.715,-92.904c-16.094,-65.155 48.597,-126.377 49.208,-193.785c0.389,-43.438 -25.911,-81.827 -53.761,-114.69c-27.847,-32.862 -59.175,-64.855 -72.404,-105.987c-29.461,-91.619 90.091,-173.918 25.858,-265.256c-12.327,-17.534 -30.658,-30.459 -48.782,-43.21c-25.085,-17.645 -49.772,-34.961 -57.583,-63.686c-17.635,-64.764 64.647,-115.042 80.328,-180.93c21.239,-89.21 -84.895,-167.631 -68.784,-257.812c15.396,-86.22 133.38,-128.986 143.262,-215.906c7.57,-66.55 -54.034,-128.843 -35.915,-193.53c19.259,-68.77 116.041,-93.233 136.242,-161.755c29.937,-101.54 -117.849,-175.606 -79.246,-277.875c12.589,-33.345 40.894,-58.659 71.147,-77.746c30.256,-19.083 63.343,-33.355 93.174,-53.1c61.604,-40.756 107.315,-105.055 125.57,-176.179l-232.667,-195.503Zm976.754,3535.52c-37.385,2.098 -77.33,4.241 -114.199,-1.297l170.761,143.486l100.347,-118.158c-43.876,-25.231 -103.623,-27.017 -156.909,-24.031Zm-429.545,-353.258c-39.431,-11.697 -93.769,-22.513 -148.707,-37.969l335.295,281.739c-4.841,-14.255 -8.584,-29.015 -11.806,-43.611c-9.122,-41.316 -15.547,-84.255 -36.351,-120.925c-7.306,-12.881 -16.348,-23.306 -26.62,-31.937c-30.671,-25.777 -72.336,-35.587 -111.811,-47.297Z" style="fill:#fff;fill-rule:nonzero;"/><path d="M4861.91,2515.59l2159.28,-773.043l-747.198,-2053.08c-2.605,4.927 -5.51,9.848 -8.742,14.77c-37.588,57.29 -111.433,95.913 -119.298,163.465c-6.974,59.917 42.27,109.722 85.929,151.704c43.654,41.983 88.952,97.874 72.2,155.963c-19.83,68.759 -112.192,90.864 -148.652,152.808c-23.492,39.92 -19.639,89.387 -11.413,134.577c8.225,45.185 20.127,91.422 10.444,136.464c-21.575,100.323 -175.839,112.684 -165.143,231.265c2.05,22.762 12.101,44.463 22.053,65.893c13.776,29.658 27.36,58.801 19.279,89.496c-18.198,69.218 -120.982,71.846 -170.554,124.361c-67.127,71.099 -10.845,200.061 -73.751,274.788c-60.137,71.448 -191.901,48.125 -247.317,123.156c-42.432,57.446 -18.697,147.796 -69.882,197.903c-54.412,53.271 -156.844,24.331 -211.995,76.872c-81.727,77.857 15.351,224.976 -74.771,298.893c-29.386,24.098 -69.013,32.41 -107.124,33.931c-38.112,1.516 -76.277,-2.919 -114.349,-0.566c-78.611,4.844 -155.078,39.899 -209.817,95.88l110.82,304.501Zm980.458,-3786.15c35.652,17.97 73.693,37.262 104.803,62.011l-81.334,-223.481l-155.619,55.713c27.095,46.673 81.336,80.139 132.15,105.757Zm208.681,555.072c30.196,31.803 74.632,70.732 117.152,114.265l-159.702,-438.815c-3.119,15.747 -7.521,31.374 -12.318,46.574c-13.576,43.024 -30.507,86.111 -30.816,131.064c-0.111,15.79 2.691,30.235 7.584,43.678c14.605,40.146 47.871,71.395 78.1,103.234Z" style="fill:#172d8f;fill-rule:nonzero;"/><path d="M6382.2,2331.82l335.517,-1752.77c-36.876,8.39 -71.366,27.431 -96.917,55.357c-47.562,51.981 -80.518,142.642 -53.668,207.784c-52.846,26.445 -92.865,77.245 -106.203,134.814c-13.334,57.57 1.51,101.198 37.336,148.19c-87.118,-25.16 -187.555,4.143 -247.475,72.21c-59.928,68.06 -98.285,172.479 -62.282,255.71c-44.14,-1.216 -88.384,18.832 -116.572,52.816c-28.187,33.984 -39.705,81.173 -30.347,124.325c-45.417,-5.861 -76.731,52.506 -82.521,97.937c-101.588,-38.009 -221.833,-21.421 -309.33,42.677c-87.497,64.093 -147.097,156.79 -141.494,265.112c-63.969,-28.545 -141.798,-23.635 -201.67,12.725c-26.707,16.218 -49.515,38.491 -66.952,64.402l1142.58,218.713Z" style="fill:#141c3a;fill-rule:nonzero;"/><path d="M6107.8,1822.14l9.73,11.81c3.376,4.099 7.801,7.13 12.776,8.736l14.318,4.621c0.556,0.18 0.705,0.909 0.263,1.293l-11.364,9.858c-3.95,3.42 -6.833,7.948 -8.336,13.035l-4.326,14.684c-0.166,0.561 -0.876,0.706 -1.248,0.255l-9.731,-11.817c-3.369,-4.094 -7.808,-7.129 -12.769,-8.731l-14.33,-4.618c-0.55,-0.181 -0.699,-0.911 -0.264,-1.293l11.377,-9.861c3.936,-3.423 6.834,-7.948 8.329,-13.04l4.327,-14.678c0.164,-0.567 0.875,-0.711 1.248,-0.254" style="fill:#fff;fill-rule:nonzero;"/><path d="M5523.28,1228.39l9.73,11.81c3.376,4.099 7.808,7.129 12.77,8.737l14.33,4.618c0.55,0.181 0.699,0.911 0.263,1.293l-11.377,9.862c-3.937,3.416 -6.826,7.946 -8.329,13.033l-4.326,14.684c-0.166,0.561 -0.876,0.705 -1.248,0.255l-9.731,-11.817c-3.375,-4.093 -7.808,-7.129 -12.769,-8.731l-14.33,-4.618c-0.551,-0.181 -0.699,-0.911 -0.264,-1.293l11.377,-9.861c3.936,-3.423 6.827,-7.947 8.328,-13.04l4.328,-14.678c0.164,-0.567 0.875,-0.712 1.248,-0.254" style="fill:#fff;fill-rule:nonzero;"/><path d="M5869.95,147.502l9.731,11.817c3.375,4.092 7.807,7.122 12.769,8.73l14.33,4.618c0.55,0.181 0.7,0.918 0.264,1.293l-11.377,9.862c-3.936,3.423 -6.827,7.946 -8.329,13.04l-4.327,14.677c-0.164,0.567 -0.869,0.711 -1.248,0.255l-9.73,-11.811c-3.376,-4.099 -7.802,-7.13 -12.77,-8.737l-14.324,-4.619c-0.549,-0.175 -0.699,-0.911 -0.263,-1.293l11.37,-9.86c3.942,-3.425 6.827,-7.947 8.33,-13.034l4.326,-14.684c0.172,-0.562 0.876,-0.705 1.248,-0.254" style="fill:#fff;fill-rule:nonzero;"/><path d="M6283,741.879l9.949,11.773c3.445,4.078 7.992,7.084 13.101,8.662l14.721,4.539c0.563,0.178 0.713,0.915 0.264,1.293l-11.768,9.941c-4.083,3.453 -7.089,8 -8.661,13.108l-4.545,14.722c-0.177,0.569 -0.907,0.718 -1.287,0.262l-9.947,-11.766c-3.453,-4.083 -7.994,-7.091 -13.103,-8.669l-14.727,-4.537c-0.562,-0.172 -0.712,-0.909 -0.263,-1.293l11.773,-9.943c4.083,-3.453 7.083,-7.998 8.663,-13.101l4.544,-14.728c0.172,-0.562 0.902,-0.711 1.286,-0.263" style="fill:#fff;fill-rule:nonzero;"/></svg>