<?xml version="1.0" encoding="UTF-8" standalone="no"?><!DOCTYPE svg PUBLIC "-//W3C//DTD SVG 1.1//EN" "http://www.w3.org/Graphics/SVG/1.1/DTD/svg11.dtd"><svg width="100%" height="100%" viewBox="0 0 6373 2100" version="1.1" xmlns="http://www.w3.org/2000/svg" xmlns:xlink="http://www.w3.org/1999/xlink" xml:space="preserve" xmlns:serif="http://www.serif.com/" style="fill-rule:evenodd;clip-rule:evenodd;stroke-linejoin:round;stroke-miterlimit:2;"><path d="M6815.11,-209.115c-157.783,-103.159 -331.696,-182.236 -478.575,-300.401l-572.987,-159.158c-78.761,49.864 -134.983,133.966 -150.968,225.803c-15.981,91.837 8.532,189.985 65.821,263.525c58.152,74.647 153.407,138.916 146.895,233.316c-5.116,74.158 -63.253,139.395 -58.41,214.407c4.493,69.565 75.085,93.772 91.673,156.672c9.021,34.203 -6.417,69.93 -24.74,100.196c-37.513,61.967 -70.323,119.109 -32.604,189.166c12.962,24.078 28.751,47.621 32.819,74.66c11.361,75.561 -95.251,77.45 -104.441,145.631c-12.092,89.697 146.648,118.446 108.487,212.651c-12.912,31.875 -51.589,50.744 -84.656,41.306c-26.022,-7.433 -49.846,-29.892 -76.131,-23.46c-35.253,8.626 -43.996,62.314 -79.287,70.795c-18.99,4.565 -38.123,-6.266 -53.57,-18.213c-15.451,-11.947 -30.718,-25.987 -49.952,-29.358c-52.703,-9.249 -94.823,64.936 -146.765,52.077c-9.695,-2.408 -18.481,-7.796 -28.242,-9.954c-7.668,-1.692 -15.039,-0.633 -19.793,2.721c-1.67,5.577 -0.338,12.899 3.708,19.636c5.142,8.571 13.045,15.185 18.404,23.619c28.691,45.163 -28.273,108.67 -2.763,155.701c9.312,17.171 27.474,27.188 43.704,38.041c16.24,10.851 32.583,25.558 34.29,45.009c3.164,36.158 -44.967,61.501 -41.948,97.673c2.255,26.966 31.114,42.424 46.427,64.737c19.452,28.353 13.85,71.024 -12.274,93.387c-79.269,67.881 -171.359,-92.053 -249.663,-27.346c-36.63,30.266 -24.597,95.821 -61.584,125.648c-40.175,32.391 -99.023,-3.001 -150.464,1.112c-44.056,3.526 -79.682,36.281 -109.348,69.036c-29.665,32.755 -59.389,68.882 -101.163,83.305c-59.206,20.435 -70.24,-27.386 -114.828,-40.509c-43.516,-12.815 -103.426,7.734 -138.578,32.914c-39.977,28.634 -69.755,72.225 -115.196,91.018c-87.444,36.161 -178.641,-33.753 -267.889,-65.183c-87.929,-30.964 -188.78,-23.032 -270.788,21.297c-82.005,44.323 -143.888,124.351 -166.153,214.873l332.911,492.755c158.699,101.739 288.927,241.533 436.857,358.379c147.93,116.846 325.597,213.724 513.916,205.141c194.897,-8.882 367.391,-128.986 506.837,-265.444c279.722,-273.724 474.52,-633.061 551.237,-1016.84c22.218,-111.146 33.633,-231.635 -16.232,-333.424c-0.736,-1.492 -1.513,-2.95 -2.265,-4.425c1.638,0.244 3.271,0.517 4.919,0.736c112.353,14.957 222.981,-34.139 321.309,-90.51c339.54,-194.65 618.394,-493.494 789.093,-845.678c85.095,-175.563 144.193,-377.274 90.704,-564.903c-51.678,-181.292 -199.971,-318.983 -357.754,-422.138Z" style="fill:#af8ef4;fill-rule:nonzero;"/><path d="M4076.05,2389.89l2266.91,162.556l157.693,-2199.1c-4.356,3.493 -8.981,6.857 -13.903,10.091c-57.257,37.647 -139.73,43.34 -174.27,102.525c-30.633,52.498 -6.313,118.475 16.132,174.961c22.44,56.486 40.721,126.482 1.986,173.323c-45.852,55.444 -138.367,38.369 -196.494,80.771c-37.455,27.327 -54.054,74.57 -64.96,119.637c-10.906,45.063 -18.912,92.589 -45.957,130.251c-60.245,83.883 -204.794,32.686 -243.262,146.526c-7.386,21.851 -7.106,45.969 -6.805,69.797c0.42,32.978 0.874,65.403 -18.896,90.466c-44.562,56.531 -138.597,17.24 -204.755,45.613c-89.581,38.409 -91.032,180.337 -178.269,223.809c-83.401,41.569 -193.112,-33.448 -273.697,13.345c-61.702,35.824 -76.915,128.888 -143.555,154.382c-70.843,27.107 -151.742,-41.191 -222.957,-15.058c-105.531,38.724 -77.453,213.976 -188.977,245.653c-36.364,10.326 -75.581,1.918 -110.67,-12.146c-35.088,-14.069 -67.807,-33.655 -103.198,-46.934c-73.07,-27.433 -156.466,-26.098 -228.705,3.378l-23.388,326.158Zm2423.96,-3098.23c24.951,31.064 51.527,64.318 69.618,99.798l17.165,-239.376l-163.376,-11.715c5.559,54.095 41.033,107.013 76.593,151.293Zm-36.603,597.257c14.401,41.623 38.789,95.605 59.573,153.062l33.705,-470.025c-9.214,13.275 -19.541,25.919 -30.05,38.007c-29.747,34.219 -62.553,67.134 -81.083,108.519c-6.511,14.536 -9.841,29.012 -10.874,43.411c-3.088,42.999 14.313,85.356 28.729,127.026Z" style="fill:#0e80f3;fill-rule:nonzero;"/><path d="M6236.84,2635.49l476.972,-1719.67c-37.436,5.362 -73.36,21.535 -101.099,47.29c-51.632,47.94 -91.852,135.621 -70.39,202.73c-54.822,22.059 -98.84,69.436 -116.817,125.729c-17.972,56.295 -6.726,100.985 25.16,150.736c-84.784,-32.163 -187.271,-11.126 -252.529,51.842c-65.266,62.96 -111.988,163.913 -82.874,249.796c-43.895,-4.802 -89.624,11.581 -120.482,43.16c-30.858,31.578 -46.177,77.675 -40.359,121.445c-44.79,-9.536 -80.747,46.09 -90.213,90.9c-98.16,-46.146 -219.356,-39.393 -311.777,17.375c-92.42,56.764 -159.362,144.307 -162.588,252.725c-61.436,-33.653 -139.407,-35.09 -202.038,-3.72c-27.937,13.992 -52.481,34.335 -71.968,58.742l1121,310.924Z" style="fill:#073f7a;fill-rule:nonzero;"/></svg>