<?xml version="1.0" encoding="UTF-8" standalone="no"?><!DOCTYPE svg PUBLIC "-//W3C//DTD SVG 1.1//EN" "http://www.w3.org/Graphics/SVG/1.1/DTD/svg11.dtd"><svg width="100%" height="100%" viewBox="0 0 6373 2100" version="1.1" xmlns="http://www.w3.org/2000/svg" xmlns:xlink="http://www.w3.org/1999/xlink" xml:space="preserve" xmlns:serif="http://www.serif.com/" style="fill-rule:evenodd;clip-rule:evenodd;stroke-linejoin:round;stroke-miterlimit:2;"><path d="M4417.42,2328.38l2196.01,-1076.38l-1036.35,-2086.55c-2.173,5.532 -4.665,11.092 -7.503,16.692c-33.006,65.186 -106.656,114.91 -106.944,187.429c-0.251,64.322 57.863,111.232 109.127,150.518c51.26,39.288 105.919,93.117 95.087,156.667c-12.822,75.223 -108.061,109.65 -139.318,179.632c-20.138,45.099 -10.162,97.059 3.938,143.965c14.098,46.901 32.218,94.478 27.323,143.361c-10.912,108.879 -172.906,140.353 -147.446,264.734c4.884,23.875 18.119,45.674 31.218,67.197c18.131,29.786 35.997,59.05 31.091,92.538c-11.039,75.515 -119.642,90.545 -165.916,152.097c-62.661,83.338 12.341,213.289 -45.417,299.967c-55.213,82.875 -197.616,73.856 -247.4,159.964c-38.12,65.928 -2.207,158.841 -50.477,218.034c-51.312,62.932 -163.302,44.467 -215.484,106.712c-77.328,92.238 43.067,236.57 -43.626,325.631c-28.269,29.037 -69.27,42.565 -109.474,48.716c-40.205,6.147 -81.175,5.994 -121.238,13.023c-82.724,14.497 -159.576,60.752 -210.912,126.594l153.704,309.465Zm587.932,-4128.81c39.919,14.796 82.528,30.707 118.442,53.227l-112.808,-227.125l-158.267,77.574c34.272,46.23 95.736,75.231 152.633,96.324Zm287.252,563.328c35.786,30.103 87.511,66.061 137.753,107.126l-221.503,-445.969c-1.429,17.057 -4.232,34.142 -7.505,50.819c-9.26,47.208 -22.068,94.882 -17.041,142.555c1.764,16.744 6.453,31.718 13.239,45.38c20.259,40.8 59.232,69.951 95.057,100.089Z" style="fill:#6400e4;fill-rule:nonzero;"/><path d="M6827.2,-406.646c-168.859,-110.401 -354.981,-195.029 -512.17,-321.488l-613.208,-170.331c-84.291,53.365 -144.459,143.37 -161.566,241.654c-17.103,98.283 9.131,203.321 70.442,282.023c62.233,79.887 164.175,148.667 157.206,249.695c-5.475,79.363 -67.693,149.18 -62.511,229.457c4.809,74.449 80.357,100.354 98.109,167.67c9.654,36.604 -6.868,74.839 -26.477,107.229c-40.147,66.317 -75.259,127.47 -34.892,202.445c13.871,25.768 30.769,50.964 35.122,79.901c12.159,80.865 -101.937,82.887 -111.772,155.854c-12.941,95.993 156.942,126.76 116.102,227.578c-13.818,34.112 -55.21,54.306 -90.599,44.205c-27.848,-7.954 -53.345,-31.989 -81.475,-25.106c-37.727,9.231 -47.084,66.688 -84.852,75.764c-20.323,4.885 -40.799,-6.705 -57.33,-19.491c-16.536,-12.786 -32.875,-27.811 -53.459,-31.419c-56.402,-9.899 -101.479,69.494 -157.067,55.732c-10.376,-2.577 -19.779,-8.343 -30.225,-10.652c-8.206,-1.812 -16.094,-0.678 -21.182,2.911c-1.787,5.97 -0.362,13.806 3.968,21.015c5.503,9.173 13.961,16.251 19.696,25.277c30.705,48.333 -30.257,116.299 -2.957,166.631c9.965,18.376 29.402,29.096 46.772,40.711c17.38,11.612 34.87,27.352 36.697,48.169c3.386,38.696 -48.124,65.818 -44.893,104.529c2.413,28.859 33.298,45.401 49.686,69.281c20.818,30.343 14.822,76.01 -13.135,99.943c-84.834,72.646 -183.388,-98.515 -267.189,-29.266c-39.201,32.391 -26.323,102.547 -65.907,134.468c-42.995,34.665 -105.974,-3.211 -161.025,1.19c-47.15,3.774 -85.276,38.828 -117.024,73.882c-31.748,35.055 -63.559,73.717 -108.265,89.153c-63.362,21.869 -75.171,-29.308 -122.889,-43.353c-46.57,-13.714 -110.686,8.277 -148.305,35.225c-42.784,30.643 -74.652,77.295 -123.283,97.407c-93.581,38.699 -191.181,-36.122 -286.693,-69.759c-94.101,-33.137 -202.032,-24.648 -289.797,22.792c-87.761,47.435 -153.988,133.08 -177.816,229.956l356.28,527.346c169.839,108.88 309.209,258.487 467.523,383.535c158.314,125.048 348.453,228.726 549.991,219.541c208.578,-9.506 393.181,-138.04 542.415,-284.077c299.357,-292.938 507.829,-677.5 589.932,-1088.22c23.778,-118.949 35.994,-247.896 -17.372,-356.83c-0.788,-1.596 -1.619,-3.156 -2.423,-4.735c1.753,0.261 3.501,0.553 5.264,0.788c120.24,16.006 238.633,-36.536 343.864,-96.864c363.374,-208.314 661.803,-528.135 844.484,-905.042c91.068,-187.886 154.315,-403.757 97.071,-604.556c-55.305,-194.019 -214.008,-341.375 -382.866,-451.771Z" style="fill:#6400e4;fill-rule:nonzero;"/><path d="M4367.76,2479.96l2566.59,-559.089l-545.421,-2442.16c-3.686,5.212 -7.712,10.371 -12.109,15.484c-51.152,59.516 -140.726,92.477 -159.636,168.037c-16.769,67.022 31.804,130.861 75.189,184.99c43.38,54.13 86.574,124.299 58.969,187.8c-32.677,75.164 -140.842,86.63 -191.401,151.598c-32.577,41.87 -35.507,98.622 -32.838,151.162c2.668,52.534 9.358,106.805 -8.292,156.532c-39.321,110.757 -216.353,102.013 -221.717,238.272c-1.033,26.154 7.177,52.286 15.315,78.095c11.266,35.719 22.39,70.825 8.679,104.493c-30.891,75.927 -148.018,63.732 -212.075,116.055c-86.74,70.838 -41.863,225.619 -124.346,301.2c-78.853,72.267 -225.06,26.317 -299.08,103.35c-56.677,58.978 -43.064,165.099 -108.598,214.449c-69.666,52.467 -181.73,4.47 -252.128,55.999c-104.32,76.357 -15.791,257.786 -129.064,328.427c-36.935,23.03 -83.169,26.617 -126.678,22.716c-43.511,-3.906 -86.202,-14.58 -129.79,-17.53c-89.999,-6.108 -182.023,22.412 -252.461,77.909l80.894,362.206Zm1672.73,-4155.34c37.838,25.675 78.195,53.205 109.872,85.908l-59.37,-265.833l-184.974,40.294c23.881,57.01 80.543,103.031 134.472,139.631Zm155.033,661.247c29.599,40.58 74.319,91.356 116.181,147.079l-116.575,-521.973c-5.868,17.424 -13.176,34.523 -20.869,51.077c-21.772,46.86 -47.365,93.296 -54.355,144.307c-2.458,17.916 -1.409,34.736 2.162,50.727c10.66,47.752 43.826,88.157 73.456,128.783Z" style="fill:#172d8f;fill-rule:nonzero;"/><path d="M6271.66,2602.02l559.498,-2180.2c-46.919,4.005 -91.687,22.067 -125.946,53.12c-63.77,57.8 -112.279,167.727 -83.753,255.921c-68.378,24.183 -122.594,81.849 -143.879,153.034c-21.279,71.187 -6.11,129.682 35.111,196.304c-107.285,-48.054 -235.584,-28.891 -316.128,47.227c-80.554,76.108 -136.925,202.642 -98.349,315.636c-55.27,-9.601 -112.354,7.97 -150.398,46.289c-38.045,38.319 -56.225,96.563 -47.9,153.449c-56.504,-15.774 -100.399,53.155 -111.255,110.194c-124.419,-67.123 -276.558,-67.829 -391.379,-1.814c-114.82,66.009 -196.911,173.682 -198.451,313.22c-77.981,-48.163 -175.993,-56.073 -253.969,-20.491c-34.782,15.87 -65.152,40.194 -89.074,70.149l1415.87,487.962Z" style="fill:#141c3a;fill-rule:nonzero;"/><path d="M6048.88,1819.23l9.73,11.81c3.376,4.099 7.801,7.13 12.776,8.736l14.317,4.621c0.557,0.18 0.706,0.909 0.264,1.293l-11.364,9.859c-3.95,3.419 -6.834,7.947 -8.336,13.034l-4.326,14.684c-0.166,0.561 -0.877,0.706 -1.249,0.255l-9.731,-11.817c-3.368,-4.094 -7.808,-7.129 -12.768,-8.73l-14.33,-4.619c-0.551,-0.181 -0.7,-0.911 -0.264,-1.293l11.377,-9.861c3.936,-3.423 6.833,-7.948 8.328,-13.04l4.328,-14.678c0.164,-0.566 0.875,-0.711 1.248,-0.254" style="fill:#fff;fill-rule:nonzero;"/><path d="M5310.5,1220.54l9.73,11.81c3.376,4.099 7.808,7.129 12.769,8.737l14.331,4.618c0.55,0.181 0.699,0.911 0.263,1.293l-11.377,9.862c-3.937,3.416 -6.827,7.946 -8.329,13.033l-4.326,14.684c-0.166,0.561 -0.877,0.705 -1.249,0.255l-9.731,-11.817c-3.375,-4.093 -7.808,-7.129 -12.768,-8.731l-14.33,-4.618c-0.551,-0.181 -0.699,-0.911 -0.264,-1.293l11.377,-9.861c3.936,-3.423 6.827,-7.947 8.328,-13.04l4.328,-14.678c0.164,-0.567 0.875,-0.712 1.248,-0.254" style="fill:#fff;fill-rule:nonzero;"/><path d="M5869.95,147.502l9.731,11.817c3.375,4.092 7.807,7.122 12.769,8.73l14.33,4.618c0.55,0.181 0.7,0.918 0.264,1.293l-11.377,9.862c-3.936,3.423 -6.827,7.946 -8.329,13.04l-4.327,14.677c-0.164,0.567 -0.869,0.711 -1.248,0.255l-9.73,-11.811c-3.376,-4.099 -7.802,-7.13 -12.77,-8.737l-14.324,-4.619c-0.549,-0.175 -0.699,-0.911 -0.263,-1.293l11.37,-9.86c3.942,-3.425 6.827,-7.947 8.33,-13.034l4.326,-14.684c0.172,-0.562 0.876,-0.705 1.248,-0.254" style="fill:#fff;fill-rule:nonzero;"/><path d="M6283,741.879l9.949,11.773c3.445,4.078 7.992,7.084 13.101,8.662l14.721,4.539c0.563,0.178 0.713,0.915 0.264,1.293l-11.768,9.941c-4.083,3.453 -7.089,8 -8.661,13.108l-4.545,14.722c-0.177,0.569 -0.907,0.718 -1.287,0.262l-9.947,-11.766c-3.453,-4.083 -7.994,-7.091 -13.103,-8.669l-14.727,-4.537c-0.562,-0.172 -0.712,-0.909 -0.263,-1.293l11.773,-9.943c4.083,-3.453 7.083,-7.998 8.663,-13.101l4.544,-14.728c0.172,-0.562 0.902,-0.711 1.286,-0.263" style="fill:#fff;fill-rule:nonzero;"/></svg>