<?xml version="1.0" encoding="UTF-8" standalone="no"?><!DOCTYPE svg PUBLIC "-//W3C//DTD SVG 1.1//EN" "http://www.w3.org/Graphics/SVG/1.1/DTD/svg11.dtd"><svg width="100%" height="100%" viewBox="0 0 184 428" version="1.1" xmlns="http://www.w3.org/2000/svg" xmlns:xlink="http://www.w3.org/1999/xlink" xml:space="preserve" xmlns:serif="http://www.serif.com/" style="fill-rule:evenodd;clip-rule:evenodd;stroke-linejoin:round;stroke-miterlimit:2;"><path d="M0,21.74c0,-0 6.845,141.721 6.845,138.513c-0,-3.207 21.389,-87.238 21.389,-87.238l3.42,192.446l20.534,-93.658l-2.642,175.104l26.597,-158.424c-0,-0 15.394,242.479 15.394,239.272c0,3.207 15.405,-239.272 15.405,-239.272l26.592,158.424l-2.638,-175.104l20.53,93.658l3.42,-192.446c-0,-0 21.384,84.031 21.384,87.238c0,3.208 6.845,-138.513 6.845,-138.513l-183.075,-0Z" style="fill:#f0bc61;"/><path d="M28.983,-0c-0,-0 4.362,90.301 4.362,88.258c-0,-2.044 13.626,-55.59 13.626,-55.59l2.179,122.622l13.086,-59.676l-1.681,111.575l16.94,-100.948c0,0 9.811,154.503 9.811,152.465c-0,2.038 9.815,-152.465 9.815,-152.465l16.941,100.948l-1.676,-111.575l13.081,59.676l2.178,-122.622c0,0 13.627,53.546 13.627,55.59c-0,2.043 4.362,-88.258 4.362,-88.258l-116.651,-0Z" style="fill:#f08a46;"/></svg>