<?xml version="1.0" encoding="iso-8859-1"?>
<!-- Generator: Adobe Illustrator 19.0.0, SVG Export Plug-In . SVG Version: 6.00 Build 0)  -->
<svg version="1.1" id="Capa_1" xmlns="http://www.w3.org/2000/svg" xmlns:xlink="http://www.w3.org/1999/xlink" x="0px" y="0px"
	 viewBox="0 0 512 512" style="enable-background:new 0 0 512 512;" xml:space="preserve">
<g>
	<g>
		<g>
			<path d="M315.36,4.64C312.341,1.645,308.253-0.024,304,0H48C21.49,0,0,21.491,0,48v416c0,26.51,21.49,48,48,48h112v-32H48
				c-8.837,0-16-7.163-16-16V48c0-8.837,7.163-16,16-16h240v64c0,17.673,14.327,32,32,32h64v48h32v-64
				c0.025-4.253-1.645-8.341-4.64-11.36L315.36,4.64z"/>
			<polygon points="176,288 208,288 208,416 240,416 240,288 272,288 272,256 176,256 			"/>
			<polygon points="128,320 96,320 96,256 64,256 64,416 96,416 96,352 128,352 128,416 160,416 160,256 128,256 			"/>
			<path d="M406.08,257.28c-5.99-2.465-12.875-1.075-17.44,3.52L352,297.44l-36.64-36.64c-6.223-6.274-16.353-6.316-22.627-0.093
				c-3.013,2.988-4.715,7.05-4.733,11.293v144h32V310.56l20.64,20.64c6.241,6.204,16.319,6.204,22.56,0l20.8-20.64V416h32V272
				C415.968,265.541,412.055,259.735,406.08,257.28z"/>
			<path d="M464,384V256h-32v144c0,8.837,7.163,16,16,16h64v-32H464z"/>
		</g>
	</g>
</g>
<g>
</g>
<g>
</g>
<g>
</g>
<g>
</g>
<g>
</g>
<g>
</g>
<g>
</g>
<g>
</g>
<g>
</g>
<g>
</g>
<g>
</g>
<g>
</g>
<g>
</g>
<g>
</g>
<g>
</g>
</svg>
