<?xml version="1.0" encoding="UTF-8" standalone="no"?><!DOCTYPE svg PUBLIC "-//W3C//DTD SVG 1.1//EN" "http://www.w3.org/Graphics/SVG/1.1/DTD/svg11.dtd"><svg width="100%" height="100%" viewBox="0 0 153 287" version="1.1" xmlns="http://www.w3.org/2000/svg" xmlns:xlink="http://www.w3.org/1999/xlink" xml:space="preserve" xmlns:serif="http://www.serif.com/" style="fill-rule:evenodd;clip-rule:evenodd;stroke-miterlimit:22.926;"><path d="M52.495,189c-0,0 1.645,34.076 1.645,33.305c0,-0.771 5.143,-20.976 5.143,-20.976l0.823,46.273l4.937,-22.52l-0.635,42.103l6.395,-38.092c-0,-0 3.701,58.303 3.701,57.531c0,0.772 3.704,-57.531 3.704,-57.531l6.394,38.092l-0.634,-42.103l4.936,22.52l0.822,-46.273c0,0 5.142,20.205 5.142,20.976c0,0.771 1.646,-33.305 1.646,-33.305l-44.019,0Z" style="fill:#f0bc61;"/><path d="M59.463,183.773c0,0 1.049,21.713 1.049,21.221c0,-0.491 3.277,-13.366 3.277,-13.366l0.524,29.484l3.146,-14.349l-0.404,26.828l4.073,-24.273c-0,0 2.359,37.15 2.359,36.659c-0,0.491 2.36,-36.659 2.36,-36.659l4.073,24.273l-0.403,-26.828l3.145,14.349l0.524,-29.484c0,0 3.277,12.875 3.277,13.366c-0,0.492 1.048,-21.221 1.048,-21.221l-28.048,0Z" style="fill:#f08a46;"/><path d="M96.029,179.281l14.092,-22.629l31.903,23.848l9.193,40.311l-28.051,-22.761l-14.632,-3.145l-12.505,-15.624Z" style="fill:#595857;"/><clipPath id="_clip1"><path d="M96.029,179.281l12.504,15.623l14.633,3.146l28.05,22.761l-9.192,-40.312l-31.903,-23.847l-14.092,22.629Z" clip-rule="nonzero"/></clipPath><g clip-path="url(#_clip1)"><path d="M111.335,169.654l0.359,-0.552l-0.551,-0.359l-0.359,0.552l0.551,0.359Zm2.207,1.437l0.36,-0.552l-0.553,-0.359l-0.357,0.552l0.55,0.359Zm2.208,1.435l0.359,-0.552l-0.552,-0.358l-0.359,0.551l0.552,0.359Zm2.208,1.436l0.359,-0.552l-0.552,-0.358l-0.359,0.552l0.552,0.358Zm2.208,1.436l0.358,-0.551l-0.551,-0.359l-0.36,0.552l0.553,0.358Zm2.207,1.437l0.36,-0.552l-0.553,-0.36l-0.359,0.553l0.552,0.359Zm2.206,1.436l0.361,-0.552l-0.553,-0.359l-0.358,0.552l0.55,0.359Zm2.21,1.436l0.357,-0.551l-0.55,-0.359l-0.36,0.552l0.553,0.358Zm2.206,1.438l0.36,-0.553l-0.552,-0.358l-0.359,0.551l0.551,0.36Zm2.208,1.436l0.359,-0.552l-0.552,-0.359l-0.358,0.552l0.551,0.359Zm2.209,1.438l0.358,-0.552l-0.552,-0.36l-0.358,0.552l0.552,0.36Zm2.208,1.435l0.359,-0.551l-0.553,-0.359l-0.357,0.551l0.551,0.359Zm1.008,2.209l0.603,-0.266l-0.266,-0.602l-0.601,0.266l0.264,0.602Zm1.061,2.41l0.603,-0.264l-0.266,-0.604l-0.602,0.266l0.265,0.602Zm1.061,2.41l0.602,-0.264l-0.265,-0.603l-0.603,0.266l0.266,0.601Zm1.061,2.41l0.601,-0.264l-0.264,-0.603l-0.603,0.266l0.266,0.601Zm1.06,2.412l0.602,-0.265l-0.264,-0.603l-0.604,0.265l0.266,0.603Zm1.061,2.41l0.602,-0.265l-0.264,-0.603l-0.603,0.266l0.265,0.602Zm1.061,2.411l0.602,-0.266l-0.265,-0.602l-0.603,0.265l0.266,0.603Zm1.061,2.411l0.601,-0.266l-0.265,-0.603l-0.602,0.266l0.266,0.603Zm1.06,2.41l0.603,-0.265l-0.265,-0.603l-0.604,0.265l0.266,0.603Zm1.06,2.411l0.604,-0.266l-0.266,-0.601l-0.601,0.264l0.263,0.603Zm1.062,2.41l0.603,-0.265l-0.266,-0.602l-0.602,0.266l0.265,0.601Zm1.06,2.411l0.604,-0.264l-0.266,-0.604l-0.602,0.266l0.264,0.602Zm1.062,2.412l0.603,-0.265l-0.266,-0.603l-0.602,0.265l0.265,0.603Zm1.062,2.411l0.602,-0.266l-0.266,-0.602l-0.601,0.265l0.265,0.603Zm1.061,2.411l0.603,-0.266l-0.266,-0.602l-0.602,0.265l0.265,0.603Zm-42.352,-53.195l0.357,-0.551l-0.55,-0.359l-0.36,0.551l0.553,0.359Z" style="fill:#b4b5b5;"/></g><path d="M55.187,179.281l-14.091,-22.629l-31.903,23.848l-9.193,40.311l28.049,-22.761l14.632,-3.145l12.506,-15.624Z" style="fill:#595857;"/><clipPath id="_clip2"><path d="M9.194,180.499l-9.194,40.312l28.05,-22.761l14.632,-3.146l12.505,-15.623l-14.092,-22.629l-31.901,23.847Z" clip-rule="nonzero"/></clipPath><g clip-path="url(#_clip2)"><path d="M41.224,167.42l-0.359,-0.552l0.553,-0.359l0.359,0.552l-0.553,0.359Zm-2.207,1.435l-0.359,-0.551l0.552,-0.359l0.359,0.552l-0.552,0.358Zm-2.208,1.437l-0.359,-0.551l0.552,-0.359l0.359,0.551l-0.552,0.359Zm-2.208,1.436l-0.359,-0.552l0.552,-0.359l0.359,0.552l-0.552,0.359Zm-2.207,1.436l-0.358,-0.551l0.551,-0.359l0.359,0.552l-0.552,0.358Zm-2.208,1.437l-0.358,-0.551l0.551,-0.361l0.359,0.553l-0.552,0.359Zm-2.206,1.436l-0.359,-0.552l0.552,-0.359l0.358,0.552l-0.551,0.359Zm-2.208,1.437l-0.359,-0.552l0.552,-0.359l0.358,0.552l-0.551,0.359Zm-2.208,1.436l-0.359,-0.551l0.552,-0.359l0.359,0.551l-0.552,0.359Zm-2.208,1.437l-0.359,-0.552l0.552,-0.359l0.359,0.552l-0.552,0.359Zm-2.208,1.437l-0.359,-0.552l0.552,-0.359l0.359,0.552l-0.552,0.359Zm-2.209,1.436l-0.359,-0.551l0.553,-0.359l0.359,0.551l-0.553,0.359Zm-1.008,2.208l-0.603,-0.264l0.266,-0.603l0.602,0.266l-0.265,0.601Zm-1.061,2.412l-0.601,-0.266l0.265,-0.603l0.601,0.266l-0.265,0.603Zm-1.06,2.41l-0.603,-0.266l0.265,-0.602l0.603,0.265l-0.265,0.603Zm-1.06,2.41l-0.603,-0.265l0.265,-0.603l0.602,0.265l-0.264,0.603Zm-1.062,2.411l-0.602,-0.266l0.265,-0.602l0.602,0.265l-0.265,0.603Zm-1.06,2.41l-0.603,-0.265l0.266,-0.603l0.601,0.266l-0.264,0.602Zm-1.061,2.411l-0.603,-0.266l0.265,-0.603l0.603,0.266l-0.265,0.603Zm-1.06,2.41l-0.603,-0.265l0.265,-0.603l0.603,0.266l-0.265,0.602Zm-1.062,2.411l-0.603,-0.266l0.265,-0.601l0.603,0.264l-0.265,0.603Zm-1.06,2.411l-0.603,-0.266l0.265,-0.602l0.603,0.266l-0.265,0.602Zm-1.062,2.41l-0.601,-0.266l0.264,-0.601l0.603,0.265l-0.266,0.602Zm-1.06,2.412l-0.603,-0.266l0.265,-0.603l0.603,0.265l-0.265,0.604Zm-1.062,2.411l-0.603,-0.265l0.265,-0.604l0.603,0.266l-0.265,0.603Zm-1.061,2.411l-0.603,-0.265l0.266,-0.604l0.601,0.266l-0.264,0.603Zm-1.062,2.411l-0.603,-0.265l0.266,-0.604l0.603,0.266l-0.266,0.603Zm42.354,-53.195l-0.359,-0.551l0.552,-0.36l0.358,0.552l-0.551,0.359Z" style="fill:#b4b5b5;"/></g><path d="M75.608,-0c-31.172,38.972 -39.673,97.04 -32.926,194.904l65.852,0c6.746,-97.864 -1.753,-155.932 -32.926,-194.904" style="fill:#fcd9b7;"/><path d="M75.608,0c-14.503,18.133 -24.099,40.399 -29.535,68.885l59.07,-0c-5.436,-28.486 -15.032,-50.752 -29.535,-68.885" style="fill:#ec5247;"/><g><clipPath id="_clip3"><path d="M46.075,68.884l59.068,0c-5.436,-28.484 -15.031,-50.752 -29.535,-68.884c-14.503,18.132 -24.099,40.4 -29.533,68.884Z" clip-rule="nonzero"/></clipPath><g clip-path="url(#_clip3)"><path d="M37.482,14.83l-0.581,0l0,-0.581l0.581,0l0,0.581Zm2.323,0l-0.581,0l0,-0.581l0.581,0l0,0.581Zm2.323,0l-0.581,0l0,-0.581l0.581,0l0,0.581Zm2.323,0l-0.581,0l0,-0.581l0.581,0l-0,0.581Zm2.324,0l-0.581,0l0,-0.581l0.581,0l0,0.581Zm2.323,0l-0.581,0l0,-0.581l0.581,0l-0,0.581Zm2.323,0l-0.581,0l0,-0.581l0.581,0l-0,0.581Zm2.323,0l-0.581,0l0,-0.581l0.581,0l-0,0.581Zm2.323,0l-0.581,0l-0,-0.581l0.581,0l-0,0.581Zm2.323,0l-0.581,0l-0,-0.581l0.581,0l-0,0.581Zm2.322,0l-0.58,0l-0,-0.581l0.58,0l0,0.581Zm2.325,0l-0.581,0l-0,-0.581l0.581,0l-0,0.581Zm2.322,0l-0.58,0l-0,-0.581l0.58,0l0,0.581Zm2.323,0l-0.58,0l-0,-0.581l0.58,0l0,0.581Zm2.323,0l-0.58,0l-0,-0.581l0.58,0l0,0.581Zm2.323,0l-0.581,0l0,-0.581l0.581,0l0,0.581Zm2.323,0l-0.581,0l0,-0.581l0.581,0l0,0.581Zm2.324,0l-0.581,0l0,-0.581l0.581,0l0,0.581Zm2.323,0l-0.581,0l0,-0.581l0.581,0l0,0.581Zm2.323,0l-0.581,0l0,-0.581l0.581,0l0,0.581Zm2.323,0l-0.581,0l0,-0.581l0.581,0l-0,0.581Zm2.323,0l-0.581,0l0,-0.581l0.581,0l-0,0.581Zm2.323,0l-0.581,0l0,-0.581l0.581,0l-0,0.581Zm2.323,0l-0.581,0l-0,-0.581l0.581,0l-0,0.581Zm2.324,0l-0.582,0l-0,-0.581l0.582,0l-0,0.581Zm2.323,0l-0.581,0l-0,-0.581l0.581,0l-0,0.581Zm2.323,0l-0.581,0l-0,-0.581l0.581,0l-0,0.581Zm2.322,0l-0.58,0l-0,-0.581l0.58,0l0,0.581Zm2.323,0l-0.58,0l-0,-0.581l0.58,0l0,0.581Zm2.323,0l-0.58,0l-0,-0.581l0.58,0l0,0.581Zm2.323,0l-0.58,0l-0,-0.581l0.58,0l0,0.581Zm2.323,0l-0.581,0l0,-0.581l0.581,0l0,0.581Zm0.986,1.336l-0.58,-0l-0,-0.581l0.58,0l0,0.581Zm0,2.323l-0.58,-0l-0,-0.581l0.58,0l0,0.581Zm0,2.323l-0.58,-0l-0,-0.581l0.58,-0l0,0.581Zm0,2.324l-0.58,-0l-0,-0.581l0.58,0l0,0.581Zm0,2.323l-0.58,-0l-0,-0.581l0.58,-0l0,0.581Zm-1.164,1.159l0.581,-0l0,0.581l-0.581,-0l0,-0.581Zm-2.322,-0l0.58,-0l0,0.581l-0.58,-0l-0,-0.581Zm-2.323,-0l0.58,-0l0,0.581l-0.58,-0l-0,-0.581Zm-2.323,-0l0.58,-0l0,0.581l-0.58,-0l-0,-0.581Zm-2.323,-0l0.581,-0l-0,0.581l-0.581,-0l-0,-0.581Zm-2.323,-0l0.581,-0l-0,0.581l-0.581,-0l-0,-0.581Zm-2.324,-0l0.581,-0l-0,0.581l-0.581,-0l-0,-0.581Zm-2.323,-0l0.581,-0l-0,0.581l-0.581,-0l-0,-0.581Zm-2.323,-0l0.581,-0l-0,0.581l-0.581,-0l-0,-0.581Zm-2.323,-0l0.581,-0l-0,0.581l-0.581,-0l0,-0.581Zm-2.323,-0l0.581,-0l-0,0.581l-0.581,-0l0,-0.581Zm-2.323,-0l0.581,-0l-0,0.581l-0.581,-0l0,-0.581Zm-2.323,-0l0.581,-0l0,0.581l-0.581,-0l0,-0.581Zm-2.323,-0l0.581,-0l0,0.581l-0.581,-0l0,-0.581Zm-2.323,-0l0.581,-0l0,0.581l-0.581,-0l0,-0.581Zm-2.322,-0l0.58,-0l0,0.581l-0.58,-0l-0,-0.581Zm-2.323,-0l0.58,-0l0,0.581l-0.58,-0l-0,-0.581Zm-2.323,-0l0.58,-0l0,0.581l-0.58,-0l-0,-0.581Zm-2.324,-0l0.58,-0l0,0.581l-0.58,-0l-0,-0.581Zm-2.323,-0l0.58,-0l0,0.581l-0.58,-0l-0,-0.581Zm-2.323,-0l0.581,-0l-0,0.581l-0.581,-0l-0,-0.581Zm-2.323,-0l0.581,-0l-0,0.581l-0.581,-0l-0,-0.581Zm-2.323,-0l0.581,-0l-0,0.581l-0.581,-0l0,-0.581Zm-2.323,-0l0.581,-0l-0,0.581l-0.581,-0l0,-0.581Zm-2.323,-0l0.581,-0l-0,0.581l-0.581,-0l0,-0.581Zm-2.323,-0l0.581,-0l0,0.581l-0.581,-0l0,-0.581Zm-2.324,-0l0.581,-0l-0,0.581l-0.581,-0l0,-0.581Zm-2.323,-0l0.581,-0l0,0.581l-0.581,-0l0,-0.581Zm-2.323,-0l0.581,-0l0,0.581l-0.581,-0l0,-0.581Zm-2.323,-0l0.581,-0l0,0.581l-0.581,-0l0,-0.581Zm-2.322,-0l0.58,-0l0,0.581l-0.58,-0l-0,-0.581Zm-2.323,-0l0.58,-0l0,0.581l-0.58,-0l-0,-0.581Zm-2.323,-0l0.58,-0l0,0.581l-0.58,-0l-0,-0.581Zm-0.695,-1.629l0.581,0l-0,0.581l-0.581,0l0,-0.581Zm0,-2.322l0.581,-0l-0,0.58l-0.581,0l0,-0.58Zm0,-2.325l0.581,0l-0,0.581l-0.581,0l0,-0.581Zm0,-2.322l0.581,-0l-0,0.58l-0.581,0l0,-0.58Zm0,-2.323l0.581,-0l-0,0.58l-0.581,0l0,-0.58Zm0.871,-0.867l-0.58,0l-0,-0.581l0.58,0l0,0.581Z" style="fill:#fff;"/><path d="M44.975,60.882l-0.581,-0l0,-0.581l0.581,0l-0,0.581Zm2.323,-0l-0.581,-0l-0,-0.581l0.581,0l-0,0.581Zm2.323,-0l-0.581,-0l-0,-0.581l0.581,0l-0,0.581Zm2.322,-0l-0.58,-0l-0,-0.581l0.58,0l0,0.581Zm2.323,-0l-0.58,-0l-0,-0.581l0.58,0l0,0.581Zm2.323,-0l-0.58,-0l-0,-0.581l0.58,0l0,0.581Zm2.323,-0l-0.581,-0l0,-0.581l0.581,0l0,0.581Zm2.323,-0l-0.581,-0l0,-0.581l0.581,0l0,0.581Zm2.324,-0l-0.581,-0l0,-0.581l0.581,0l0,0.581Zm2.323,-0l-0.581,-0l0,-0.581l0.581,0l0,0.581Zm2.323,-0l-0.581,-0l0,-0.581l0.581,0l0,0.581Zm2.323,-0l-0.581,-0l0,-0.581l0.581,0l-0,0.581Zm2.323,-0l-0.581,-0l0,-0.581l0.581,0l-0,0.581Zm2.323,-0l-0.581,-0l0,-0.581l0.581,0l-0,0.581Zm2.323,-0l-0.581,-0l-0,-0.581l0.581,0l-0,0.581Zm2.324,-0l-0.581,-0l0,-0.581l0.581,0l-0,0.581Zm2.323,-0l-0.581,-0l-0,-0.581l0.581,0l-0,0.581Zm2.323,-0l-0.581,-0l-0,-0.581l0.581,0l-0,0.581Zm2.323,-0l-0.581,-0l-0,-0.581l0.581,0l-0,0.581Zm2.322,-0l-0.58,-0l-0,-0.581l0.58,0l0,0.581Zm2.323,-0l-0.58,-0l-0,-0.581l0.58,0l0,0.581Zm2.323,-0l-0.58,-0l-0,-0.581l0.58,0l0,0.581Zm2.324,-0l-0.58,-0l-0,-0.581l0.58,0l0,0.581Zm2.323,-0l-0.58,-0l-0,-0.581l0.58,0l0,0.581Zm2.323,-0l-0.581,-0l0,-0.581l0.581,0l0,0.581Zm2.323,-0l-0.581,-0l0,-0.581l0.581,0l0,0.581Zm2.323,-0l-0.581,-0l0,-0.581l0.581,0l-0,0.581Zm2.323,-0l-0.581,-0l0,-0.581l0.581,0l-0,0.581Zm0.869,1.454l-0.581,0l-0,-0.581l0.581,0l-0,0.581Zm-0,2.323l-0.581,-0l-0,-0.581l0.581,0l-0,0.581Zm-2.471,-0.146l0.581,-0l-0,0.58l-0.581,0l0,-0.58Zm-2.322,-0l0.58,-0l0,0.58l-0.58,0l0,-0.58Zm-2.324,-0l0.581,-0l0,0.58l-0.581,0l0,-0.58Zm-2.322,-0l0.58,-0l0,0.58l-0.58,0l-0,-0.58Zm-2.323,-0l0.58,-0l0,0.58l-0.58,0l-0,-0.58Zm-2.323,-0l0.58,-0l0,0.58l-0.58,0l-0,-0.58Zm-2.323,-0l0.58,-0l0,0.58l-0.58,0l-0,-0.58Zm-2.323,-0l0.581,-0l-0,0.58l-0.581,0l-0,-0.58Zm-2.323,-0l0.581,-0l-0,0.58l-0.581,0l-0,-0.58Zm-2.324,-0l0.582,-0l-0,0.58l-0.582,0l-0,-0.58Zm-2.323,-0l0.581,-0l-0,0.58l-0.581,0l-0,-0.58Zm-2.323,-0l0.581,-0l-0,0.58l-0.581,0l0,-0.58Zm-2.323,-0l0.581,-0l-0,0.58l-0.581,0l0,-0.58Zm-2.323,-0l0.581,-0l-0,0.58l-0.581,0l0,-0.58Zm-2.323,-0l0.581,-0l0,0.58l-0.581,0l0,-0.58Zm-2.323,-0l0.581,-0l0,0.58l-0.581,0l0,-0.58Zm-2.323,-0l0.581,-0l0,0.58l-0.581,0l0,-0.58Zm-2.322,-0l0.58,-0l0,0.58l-0.58,0l-0,-0.58Zm-2.323,-0l0.58,-0l0,0.58l-0.58,0l-0,-0.58Zm-2.324,-0l0.58,-0l0,0.58l-0.58,0l-0,-0.58Zm-2.323,-0l0.58,-0l0,0.58l-0.58,0l-0,-0.58Zm-2.323,-0l0.58,-0l0,0.58l-0.58,0l-0,-0.58Zm-2.323,-0l0.581,-0l-0,0.58l-0.581,0l-0,-0.58Zm-2.323,-0l0.581,-0l-0,0.58l-0.581,0l-0,-0.58Zm-2.323,-0l0.581,-0l-0,0.58l-0.581,0l-0,-0.58Zm-2.323,-0l0.581,-0l-0,0.58l-0.581,0l0,-0.58Zm-2.323,-0l0.581,-0l-0,0.58l-0.581,0l0,-0.58Zm-2.324,-0l0.581,-0l-0,0.58l-0.581,0l0,-0.58Zm-1.592,-0.731l0.58,0l0,0.581l-0.58,-0l-0,-0.581Zm-0,-2.323l0.58,0l0,0.581l-0.58,-0l-0,-0.581Zm0.871,-0.577l-0.581,-0l0,-0.581l0.581,0l-0,0.581Z" style="fill:#fff;"/></g></g><clipPath id="_clip4"><path d="M42.682,194.904l65.851,-0c6.747,-97.864 -1.752,-155.932 -32.925,-194.904c-31.172,38.972 -39.673,97.04 -32.926,194.904Z" clip-rule="nonzero"/></clipPath><g clip-path="url(#_clip4)"><path d="M40.27,139.571l-0.581,-0l-0,-0.581l0.581,-0l-0,0.581Zm2.323,-0l-0.581,-0l-0,-0.581l0.581,-0l-0,0.581Zm2.324,-0l-0.581,-0l-0,-0.581l0.581,-0l-0,0.581Zm2.323,-0l-0.581,-0l-0,-0.581l0.581,-0l-0,0.581Zm2.322,-0l-0.58,-0l-0,-0.581l0.58,-0l0,0.581Zm2.323,-0l-0.58,-0l-0,-0.581l0.58,-0l0,0.581Zm2.323,-0l-0.58,-0l-0,-0.581l0.58,-0l0,0.581Zm2.323,-0l-0.58,-0l-0,-0.581l0.58,-0l0,0.581Zm2.323,-0l-0.581,-0l0,-0.581l0.581,-0l0,0.581Zm2.324,-0l-0.581,-0l0,-0.581l0.581,-0l0,0.581Zm2.323,-0l-0.581,-0l0,-0.581l0.581,-0l0,0.581Zm2.323,-0l-0.581,-0l0,-0.581l0.581,-0l0,0.581Zm2.323,-0l-0.581,-0l0,-0.581l0.581,-0l-0,0.581Zm2.323,-0l-0.581,-0l0,-0.581l0.581,-0l-0,0.581Zm2.323,-0l-0.581,-0l0,-0.581l0.581,-0l-0,0.581Zm2.323,-0l-0.581,-0l-0,-0.581l0.581,-0l-0,0.581Zm2.323,-0l-0.581,-0l-0,-0.581l0.581,-0l-0,0.581Zm2.323,-0l-0.581,-0l-0,-0.581l0.581,-0l-0,0.581Zm2.322,-0l-0.58,-0l-0,-0.581l0.58,-0l0,0.581Zm2.323,-0l-0.58,-0l-0,-0.581l0.58,-0l0,0.581Zm2.324,-0l-0.58,-0l-0,-0.581l0.58,-0l0,0.581Zm2.323,-0l-0.58,-0l-0,-0.581l0.58,-0l0,0.581Zm2.323,-0l-0.58,-0l-0,-0.581l0.58,-0l0,0.581Zm2.323,-0l-0.581,-0l0,-0.581l0.581,-0l0,0.581Zm2.323,-0l-0.581,-0l0,-0.581l0.581,-0l0,0.581Zm2.323,-0l-0.581,-0l0,-0.581l0.581,-0l0,0.581Zm2.323,-0l-0.581,-0l0,-0.581l0.581,-0l-0,0.581Zm2.324,-0l-0.581,-0l0,-0.581l0.581,-0l-0,0.581Zm2.323,-0l-0.581,-0l0,-0.581l0.581,-0l-0,0.581Zm2.323,-0l-0.581,-0l0,-0.581l0.581,-0l-0,0.581Zm2.323,-0l-0.581,-0l0,-0.581l0.581,-0l-0,0.581Zm2.323,-0l-0.581,-0l-0,-0.581l0.581,-0l-0,0.581Zm0.987,1.336l-0.581,0l0,-0.58l0.581,-0l-0,0.58Zm-0,2.323l-0.581,0l0,-0.58l0.581,-0l-0,0.58Zm-0,2.323l-0.581,0l0,-0.58l0.581,-0l-0,0.58Zm-0,2.323l-0.581,0l0,-0.581l0.581,0l-0,0.581Zm-0,2.323l-0.581,0l0,-0.581l0.581,0l-0,0.581Zm-1.164,1.16l0.581,0l-0,0.581l-0.581,0l0,-0.581Zm-2.323,0l0.581,0l-0,0.581l-0.581,0l0,-0.581Zm-2.323,0l0.581,0l0,0.581l-0.581,0l0,-0.581Zm-2.323,0l0.581,0l0,0.581l-0.581,0l0,-0.581Zm-2.324,0l0.581,0l0,0.581l-0.581,0l0,-0.581Zm-2.323,0l0.581,0l0,0.581l-0.581,0l0,-0.581Zm-2.323,0l0.581,0l0,0.581l-0.581,0l0,-0.581Zm-2.322,0l0.58,0l0,0.581l-0.58,0l-0,-0.581Zm-2.323,0l0.58,0l0,0.581l-0.58,0l-0,-0.581Zm-2.323,0l0.58,0l0,0.581l-0.58,0l-0,-0.581Zm-2.323,0l0.581,0l-0,0.581l-0.581,0l-0,-0.581Zm-2.323,0l0.581,0l-0,0.581l-0.581,0l-0,-0.581Zm-2.324,0l0.581,0l-0,0.581l-0.581,0l-0,-0.581Zm-2.322,0l0.581,0l-0,0.581l-0.581,0l0,-0.581Zm-2.324,0l0.581,0l-0,0.581l-0.581,0l-0,-0.581Zm-2.323,0l0.581,0l-0,0.581l-0.581,0l0,-0.581Zm-2.323,0l0.581,0l-0,0.581l-0.581,0l0,-0.581Zm-2.323,0l0.581,0l-0,0.581l-0.581,0l0,-0.581Zm-2.323,0l0.581,0l0,0.581l-0.581,0l0,-0.581Zm-2.324,0l0.581,0l-0,0.581l-0.581,0l0,-0.581Zm-2.323,0l0.581,0l0,0.581l-0.581,0l0,-0.581Zm-2.323,0l0.581,0l0,0.581l-0.581,0l0,-0.581Zm-2.322,0l0.58,0l0,0.581l-0.58,0l-0,-0.581Zm-2.323,0l0.58,0l0,0.581l-0.58,0l-0,-0.581Zm-2.323,0l0.58,0l0,0.581l-0.58,0l-0,-0.581Zm-2.323,0l0.581,0l-0,0.581l-0.581,0l-0,-0.581Zm-2.323,0l0.581,0l-0,0.581l-0.581,0l-0,-0.581Zm-2.324,0l0.581,0l-0,0.581l-0.581,0l-0,-0.581Zm-2.323,0l0.581,0l-0,0.581l-0.581,0l-0,-0.581Zm-2.323,0l0.581,0l-0,0.581l-0.581,0l-0,-0.581Zm-2.323,0l0.581,0l-0,0.581l-0.581,0l0,-0.581Zm-2.323,0l0.581,0l-0,0.581l-0.581,0l0,-0.581Zm-2.323,0l0.581,0l-0,0.581l-0.581,0l0,-0.581Zm-0.694,-1.629l0.58,-0l0,0.581l-0.58,-0l-0,-0.581Zm-0,-2.323l0.58,-0l0,0.581l-0.58,-0l-0,-0.581Zm-0,-2.323l0.58,0l0,0.581l-0.58,-0l-0,-0.581Zm-0,-2.324l0.58,-0l0,0.581l-0.58,-0l-0,-0.581Zm-0,-2.323l0.58,0l0,0.581l-0.58,-0l-0,-0.581Zm0.871,-0.866l-0.581,-0l0,-0.581l0.581,-0l-0,0.581Z" style="fill:#fff;"/></g><path d="M41.139,167.041c0.362,8.914 0.877,18.191 1.543,27.863l65.851,-0c0.668,-9.672 1.183,-18.949 1.544,-27.863l-68.938,-0Z" style="fill:#ec5247;"/><clipPath id="_clip5"><path d="M41.14,167.04c0.361,8.914 0.875,18.193 1.542,27.864l65.851,-0c0.668,-9.671 1.183,-18.95 1.545,-27.864l-68.938,0Z" clip-rule="nonzero"/></clipPath><g clip-path="url(#_clip5)"><path d="M40.792,170.234l-0.58,0l-0,-0.58l0.58,-0l0,0.58Zm2.323,0l-0.58,0l-0,-0.58l0.58,-0l0,0.58Zm2.323,0l-0.581,0l0,-0.58l0.581,-0l0,0.58Zm2.324,0l-0.58,0l-0,-0.58l0.58,-0l0,0.58Zm2.323,0l-0.581,0l0,-0.58l0.581,-0l0,0.58Zm2.323,0l-0.581,0l0,-0.58l0.581,-0l0,0.58Zm2.323,0l-0.581,0l0,-0.58l0.581,-0l-0,0.58Zm2.323,0l-0.581,0l0,-0.58l0.581,-0l-0,0.58Zm2.323,0l-0.581,0l0,-0.58l0.581,-0l-0,0.58Zm2.323,0l-0.581,0l-0,-0.58l0.581,-0l-0,0.58Zm2.324,0l-0.581,0l0,-0.58l0.581,-0l-0,0.58Zm2.323,0l-0.581,0l-0,-0.58l0.581,-0l-0,0.58Zm2.323,0l-0.581,0l-0,-0.58l0.581,-0l-0,0.58Zm2.323,0l-0.581,0l-0,-0.58l0.581,-0l-0,0.58Zm2.322,0l-0.58,0l-0,-0.58l0.58,-0l0,0.58Zm2.323,0l-0.58,0l-0,-0.58l0.58,-0l0,0.58Zm2.323,0l-0.58,0l-0,-0.58l0.58,-0l0,0.58Zm2.323,0l-0.581,0l0,-0.58l0.581,-0l0,0.58Zm2.323,0l-0.581,0l0,-0.58l0.581,-0l0,0.58Zm2.323,0l-0.581,0l0,-0.58l0.581,-0l0,0.58Zm2.324,0l-0.581,0l0,-0.58l0.581,-0l0,0.58Zm2.323,0l-0.581,0l0,-0.58l0.581,-0l0,0.58Zm2.323,0l-0.581,0l0,-0.58l0.581,-0l-0,0.58Zm2.323,0l-0.581,0l0,-0.58l0.581,-0l-0,0.58Zm2.323,0l-0.581,0l0,-0.58l0.581,-0l-0,0.58Zm2.323,0l-0.581,0l-0,-0.58l0.581,-0l-0,0.58Zm2.323,0l-0.581,0l-0,-0.58l0.581,-0l-0,0.58Zm2.324,0l-0.581,0l-0,-0.58l0.581,-0l-0,0.58Zm2.323,0l-0.581,0l-0,-0.58l0.581,-0l-0,0.58Zm2.322,0l-0.58,0l-0,-0.58l0.58,-0l0,0.58Zm2.323,0l-0.58,0l-0,-0.58l0.58,-0l0,0.58Zm2.323,0l-0.58,0l-0,-0.58l0.58,-0l0,0.58Zm0.988,1.337l-0.581,0l-0,-0.581l0.581,0l-0,0.581Zm-0,2.323l-0.581,0l-0,-0.581l0.581,0l-0,0.581Zm-0,2.324l-0.581,0l-0,-0.581l0.581,0l-0,0.581Zm-0,2.323l-0.581,-0l-0,-0.581l0.581,0l-0,0.581Zm-0,2.323l-0.581,-0l-0,-0.581l0.581,0l-0,0.581Zm-0,2.323l-0.581,-0l-0,-0.581l0.581,0l-0,0.581Zm-0,2.323l-0.581,-0l-0,-0.581l0.581,0l-0,0.581Zm-0,2.323l-0.581,-0l-0,-0.581l0.581,-0l-0,0.581Zm-0,2.323l-0.581,-0l-0,-0.581l0.581,-0l-0,0.581Zm-1.048,1.275l0.581,-0l-0,0.581l-0.581,-0l-0,-0.581Zm-2.323,-0l0.581,-0l-0,0.581l-0.581,-0l-0,-0.581Zm-2.323,-0l0.581,-0l-0,0.581l-0.581,-0l0,-0.581Zm-2.323,-0l0.581,-0l-0,0.581l-0.581,-0l0,-0.581Zm-2.323,-0l0.581,-0l-0,0.581l-0.581,-0l0,-0.581Zm-2.324,-0l0.581,-0l-0,0.581l-0.581,-0l0,-0.581Zm-2.323,-0l0.581,-0l-0,0.581l-0.581,-0l0,-0.581Zm-2.323,-0l0.581,-0l0,0.581l-0.581,-0l0,-0.581Zm-2.323,-0l0.581,-0l0,0.581l-0.581,-0l0,-0.581Zm-2.322,-0l0.58,-0l0,0.581l-0.58,-0l-0,-0.581Zm-2.323,-0l0.58,-0l0,0.581l-0.58,-0l-0,-0.581Zm-2.323,-0l0.58,-0l0,0.581l-0.58,-0l-0,-0.581Zm-2.323,-0l0.581,-0l-0,0.581l-0.581,-0l-0,-0.581Zm-2.323,-0l0.581,-0l-0,0.581l-0.581,-0l-0,-0.581Zm-2.323,-0l0.581,-0l-0,0.581l-0.581,-0l-0,-0.581Zm-2.324,-0l0.581,-0l-0,0.581l-0.581,-0l-0,-0.581Zm-2.323,-0l0.581,-0l-0,0.581l-0.581,-0l-0,-0.581Zm-2.323,-0l0.581,-0l-0,0.581l-0.581,-0l0,-0.581Zm-2.323,-0l0.581,-0l-0,0.581l-0.581,-0l0,-0.581Zm-2.323,-0l0.581,-0l-0,0.581l-0.581,-0l0,-0.581Zm-2.324,-0l0.581,-0l-0,0.581l-0.581,-0l0,-0.581Zm-2.323,-0l0.581,-0l-0,0.581l-0.581,-0l0,-0.581Zm-2.323,-0l0.581,-0l0,0.581l-0.581,-0l0,-0.581Zm-2.323,-0l0.581,-0l0,0.581l-0.581,-0l0,-0.581Zm-2.323,-0l0.581,-0l0,0.581l-0.581,-0l0,-0.581Zm-2.322,-0l0.58,-0l0,0.581l-0.58,-0l-0,-0.581Zm-2.323,-0l0.58,-0l0,0.581l-0.58,-0l-0,-0.581Zm-2.323,-0l0.58,-0l0,0.581l-0.58,-0l-0,-0.581Zm-2.324,-0l0.58,-0l0,0.581l-0.58,-0l-0,-0.581Zm-2.323,-0l0.58,-0l0,0.581l-0.58,-0l-0,-0.581Zm-2.323,-0l0.581,-0l-0,0.581l-0.581,-0l-0,-0.581Zm-2.323,-0l0.581,-0l-0,0.581l-0.581,-0l-0,-0.581Zm-2.323,-0l0.581,-0l-0,0.581l-0.581,-0l0,-0.581Zm-0.811,-1.514l0.581,0l0,0.581l-0.581,0l0,-0.581Zm0,-2.322l0.581,-0l0,0.58l-0.581,0l0,-0.58Zm0,-2.323l0.581,-0l0,0.58l-0.581,0l0,-0.58Zm0,-2.323l0.581,-0l0,0.58l-0.581,0l0,-0.58Zm0,-2.323l0.581,-0l0,0.581l-0.581,-0l0,-0.581Zm0,-2.323l0.581,-0l0,0.581l-0.581,-0l0,-0.581Zm0,-2.323l0.581,-0l0,0.581l-0.581,-0l0,-0.581Zm0,-2.323l0.581,0l0,0.581l-0.581,-0l0,-0.581Zm0,-2.323l0.581,0l0,0.581l-0.581,-0l0,-0.581Zm0.871,-1.1l-0.58,0l-0,-0.58l0.58,-0l0,0.58Z" style="fill:#fff;"/></g><path d="M41.987,99.674c-0.571,6.876 -0.974,14.053 -1.211,21.554l69.665,-0c-0.238,-7.501 -0.64,-14.678 -1.211,-21.554l-67.243,0Z" style="fill:#ec5247;"/><clipPath id="_clip6"><path d="M41.987,99.675c-0.572,6.875 -0.974,14.052 -1.212,21.553l69.665,-0c-0.237,-7.501 -0.64,-14.678 -1.211,-21.553l-67.242,-0Z" clip-rule="nonzero"/></clipPath><g clip-path="url(#_clip6)"><rect x="38.413" y="102.87" width="75.615" height="15.68" style="fill:none;stroke:#fff;stroke-width:2.08px;stroke-dasharray:2.08,6.25;"/></g><path d="M48.624,200.187l53.968,-0l5.942,-5.282l-65.852,-0l5.942,5.282Z" style="fill:#5e5b5d;"/><path d="M50.514,200.193l-1.159,0l-3.373,-4.185l1.308,0l3.224,4.185Z" style="fill:#464442;"/><path d="M53.935,200.193l-1.159,0l-2.933,-4.185l1.308,0l2.784,4.185Z" style="fill:#464442;"/><path d="M57.356,200.193l-1.16,0l-2.493,-4.185l1.308,0l2.345,4.185Z" style="fill:#464442;"/><path d="M60.777,200.193l-1.158,0l-2.055,-4.185l1.308,0l1.905,4.185Z" style="fill:#464442;"/><path d="M64.197,200.193l-1.159,0l-1.613,-4.185l1.308,0l1.464,4.185Z" style="fill:#464442;"/><path d="M67.618,200.193l-1.158,0l-1.174,-4.185l1.306,0l1.026,4.185Z" style="fill:#464442;"/><path d="M71.039,200.193l-1.158,0l-0.734,-4.185l1.308,0l0.584,4.185Z" style="fill:#464442;"/><path d="M74.46,200.193l-1.159,0l-0.294,-4.185l1.308,0l0.145,4.185Z" style="fill:#464442;"/><path d="M77.881,200.193l-1.159,0l0.145,-4.185l1.309,0l-0.295,4.185Z" style="fill:#464442;"/><path d="M81.302,200.193l-1.158,0l0.585,-4.185l1.307,0l-0.734,4.185Z" style="fill:#464442;"/><path d="M84.723,200.193l-1.158,0l1.024,-4.185l1.308,0l-1.174,4.185Z" style="fill:#464442;"/><path d="M88.145,200.193l-1.159,0l1.464,-4.185l1.308,0l-1.613,4.185Z" style="fill:#464442;"/><path d="M91.565,200.193l-1.158,0l1.906,-4.185l1.306,0l-2.054,4.185Z" style="fill:#464442;"/><path d="M94.985,200.193l-1.159,0l2.345,-4.185l1.308,0l-2.494,4.185Z" style="fill:#464442;"/><path d="M98.406,200.193l-1.158,0l2.783,-4.185l1.308,0l-2.933,4.185Z" style="fill:#464442;"/><path d="M101.828,200.193l-1.159,0l3.223,-4.185l1.309,0l-3.373,4.185Z" style="fill:#464442;"/><g><g><path d="M75.606,1.425c-0.845,1.127 21.53,56.079 13.842,192.801l16.675,0c6.253,-96.809 -1.625,-154.25 -30.517,-192.801" style="fill:#fcd9b7;"/></g></g><path d="M75.608,85.77c14.241,0 25.785,11.05 25.785,24.68c-0,13.63 -11.544,24.68 -25.785,24.68c-14.239,-0 -25.784,-11.05 -25.784,-24.68c-0,-13.63 11.545,-24.68 25.784,-24.68" style="fill:#5e5b5d;"/><path d="M75.614,83.251c14.058,0 25.454,11.398 25.454,25.455c0,14.058 -11.396,25.454 -25.454,25.454c-14.057,0 -25.455,-11.396 -25.455,-25.454c0,-14.057 11.398,-25.455 25.455,-25.455" style="fill:#888;"/><path d="M75.615,127.202c10.187,-0 18.495,-8.309 18.495,-18.496c0,-10.188 -8.308,-18.497 -18.495,-18.497c-10.187,0 -18.496,8.309 -18.496,18.497c-0,10.187 8.309,18.496 18.496,18.496" style="fill:#7dc8e6;"/><path d="M75.615,88.621c0.776,-0 1.408,-0.633 1.408,-1.409c-0,-0.776 -0.632,-1.409 -1.408,-1.409c-0.776,-0 -1.41,0.633 -1.41,1.409c0,0.776 0.634,1.409 1.41,1.409" style="fill:#464442;"/><path d="M75.614,85.715l0.649,0.374l0.647,0.374l0,1.497l-0.647,0.374l-0.649,0.374l-1.296,-0.748l-0,-1.497l1.296,-0.748Z" style="fill:#5e5b5d;"/><path d="M75.614,86.411c0.441,0 0.8,0.36 0.8,0.802c0,0.441 -0.359,0.8 -0.8,0.8c-0.441,-0 -0.799,-0.359 -0.799,-0.8c-0,-0.442 0.358,-0.802 0.799,-0.802" style="fill:#464442;"/><path d="M65.571,91.312c0.675,-0.389 0.905,-1.251 0.516,-1.924c-0.389,-0.674 -1.25,-0.905 -1.923,-0.516c-0.675,0.388 -0.905,1.251 -0.516,1.923c0.388,0.675 1.25,0.905 1.923,0.517" style="fill:#464442;"/><path d="M64.118,88.795l1.499,0l0.748,1.297l-0.748,1.296l-1.499,-0l-0.748,-1.296l0.748,-1.297Z" style="fill:#5e5b5d;"/><path d="M64.467,89.399c0.382,-0.221 0.872,-0.09 1.093,0.292c0.222,0.384 0.091,0.873 -0.293,1.093c-0.383,0.222 -0.872,0.091 -1.091,-0.294c-0.222,-0.382 -0.091,-0.871 0.291,-1.091" style="fill:#464442;"/><path d="M58.22,98.663c0.389,-0.673 0.159,-1.535 -0.516,-1.923c-0.672,-0.389 -1.535,-0.158 -1.924,0.514c-0.388,0.675 -0.157,1.536 0.515,1.925c0.675,0.389 1.536,0.159 1.925,-0.516" style="fill:#464442;"/><path d="M55.704,97.21l1.296,-0.748l1.296,0.748l0,1.497l-0.648,0.374l-0.648,0.375l-0.648,-0.375l-0.648,-0.374l0,-1.497Z" style="fill:#5e5b5d;"/><path d="M56.307,97.559c0.221,-0.382 0.71,-0.513 1.092,-0.293c0.385,0.221 0.515,0.71 0.294,1.092c-0.221,0.385 -0.711,0.515 -1.093,0.294c-0.382,-0.221 -0.513,-0.711 -0.293,-1.093" style="fill:#464442;"/><path d="M55.529,108.706c-0,-0.778 -0.631,-1.409 -1.408,-1.409c-0.779,0 -1.409,0.631 -1.409,1.409c0,0.777 0.63,1.409 1.409,1.409c0.777,0 1.408,-0.632 1.408,-1.409" style="fill:#464442;"/><path d="M52.623,108.705l0.374,-0.648l0.375,-0.647l1.497,0l0.374,0.647l0.374,0.648l-0.374,0.649l-0.374,0.649l-1.497,-0l-0.375,-0.649l-0.374,-0.649Z" style="fill:#5e5b5d;"/><path d="M53.32,108.706c-0,-0.441 0.359,-0.8 0.8,-0.8c0.443,0 0.8,0.359 0.8,0.8c0,0.442 -0.357,0.801 -0.8,0.801c-0.441,-0 -0.8,-0.359 -0.8,-0.801" style="fill:#464442;"/><path d="M58.22,118.749c-0.389,-0.674 -1.25,-0.905 -1.925,-0.516c-0.672,0.389 -0.903,1.251 -0.515,1.925c0.389,0.673 1.252,0.903 1.924,0.515c0.675,-0.389 0.905,-1.251 0.516,-1.924" style="fill:#464442;"/><path d="M55.704,120.202l0,-1.497l0.647,-0.374l0.649,-0.374l1.296,0.748l0,1.497l-1.296,0.748l-1.296,-0.748Z" style="fill:#5e5b5d;"/><path d="M56.307,119.853c-0.22,-0.382 -0.089,-0.872 0.293,-1.093c0.382,-0.221 0.872,-0.091 1.093,0.294c0.221,0.382 0.091,0.871 -0.294,1.092c-0.382,0.22 -0.871,0.09 -1.092,-0.293" style="fill:#464442;"/><path d="M65.571,126.1c-0.673,-0.388 -1.535,-0.158 -1.923,0.516c-0.389,0.674 -0.159,1.535 0.516,1.925c0.673,0.387 1.534,0.157 1.923,-0.516c0.389,-0.674 0.159,-1.536 -0.516,-1.925" style="fill:#464442;"/><path d="M64.118,128.617l-0.748,-1.297l0.748,-1.296l1.499,0l0.748,1.296l-0.376,0.648l-0.372,0.649l-1.499,-0Z" style="fill:#5e5b5d;"/><path d="M64.467,128.013c-0.382,-0.22 -0.513,-0.711 -0.291,-1.093c0.219,-0.383 0.708,-0.513 1.091,-0.292c0.384,0.22 0.515,0.709 0.293,1.093c-0.221,0.383 -0.711,0.513 -1.093,0.292" style="fill:#464442;"/><path d="M75.614,128.791c-0.777,0 -1.409,0.631 -1.409,1.409c0,0.778 0.632,1.409 1.409,1.409c0.778,-0 1.409,-0.631 1.409,-1.409c-0,-0.778 -0.631,-1.409 -1.409,-1.409" style="fill:#464442;"/><path d="M75.614,131.697l-0.648,-0.374l-0.648,-0.375l-0,-1.496l0.648,-0.374l0.648,-0.375l0.649,0.375l0.647,0.374l0,1.496l-0.647,0.375l-0.649,0.374Z" style="fill:#5e5b5d;"/><path d="M75.614,131c-0.441,0 -0.799,-0.359 -0.799,-0.8c-0,-0.441 0.358,-0.8 0.799,-0.8c0.441,-0 0.8,0.359 0.8,0.8c0,0.441 -0.359,0.8 -0.8,0.8" style="fill:#464442;"/><path d="M85.656,126.1c-0.673,0.389 -0.903,1.251 -0.514,1.925c0.389,0.673 1.25,0.903 1.923,0.516c0.674,-0.39 0.905,-1.251 0.516,-1.925c-0.389,-0.674 -1.251,-0.904 -1.925,-0.516" style="fill:#464442;"/><path d="M87.109,128.617l-1.496,-0l-0.374,-0.649l-0.376,-0.648l0.376,-0.648l0.373,-0.648l1.497,0l0.374,0.648l0.375,0.648l-0.375,0.648l-0.374,0.649Z" style="fill:#5e5b5d;"/><path d="M86.761,128.013c-0.382,0.221 -0.872,0.091 -1.093,-0.292c-0.221,-0.384 -0.09,-0.873 0.294,-1.093c0.382,-0.221 0.871,-0.091 1.092,0.292c0.22,0.382 0.089,0.873 -0.293,1.093" style="fill:#464442;"/><path d="M93.008,118.749c-0.389,0.673 -0.158,1.535 0.515,1.924c0.674,0.388 1.537,0.158 1.926,-0.515c0.389,-0.674 0.156,-1.536 -0.516,-1.925c-0.674,-0.389 -1.535,-0.158 -1.925,0.516" style="fill:#464442;"/><path d="M95.524,120.202l-0.648,0.374l-0.647,0.375l-0.649,-0.375l-0.647,-0.374l0,-1.497l0.647,-0.374l0.649,-0.374l0.647,0.374l0.648,0.374l0,1.497Z" style="fill:#5e5b5d;"/><path d="M94.921,119.853c-0.22,0.383 -0.71,0.513 -1.092,0.293c-0.384,-0.221 -0.515,-0.71 -0.293,-1.092c0.22,-0.385 0.71,-0.515 1.092,-0.294c0.383,0.221 0.513,0.711 0.293,1.093" style="fill:#464442;"/><path d="M95.699,108.706c-0,0.777 0.631,1.409 1.409,1.409c0.778,0 1.409,-0.632 1.409,-1.409c-0,-0.778 -0.631,-1.409 -1.409,-1.409c-0.778,0 -1.409,0.631 -1.409,1.409" style="fill:#464442;"/><path d="M98.605,108.706l-0.374,0.648l-0.375,0.649l-1.496,-0l-0.748,-1.297l0.374,-0.649l0.374,-0.647l1.496,0l0.375,0.647l0.374,0.649Z" style="fill:#5e5b5d;"/><path d="M97.908,108.706c0,0.442 -0.359,0.801 -0.8,0.801c-0.441,-0 -0.8,-0.359 -0.8,-0.801c-0,-0.441 0.359,-0.8 0.8,-0.8c0.441,0 0.8,0.359 0.8,0.8" style="fill:#464442;"/><path d="M93.008,98.663c0.39,0.675 1.251,0.905 1.925,0.516c0.672,-0.389 0.905,-1.25 0.516,-1.925c-0.389,-0.672 -1.252,-0.903 -1.926,-0.514c-0.673,0.388 -0.904,1.25 -0.515,1.923" style="fill:#464442;"/><path d="M95.524,97.211l0,1.497l-0.648,0.374l-0.647,0.374l-0.649,-0.374l-0.647,-0.374l0,-1.497l0.647,-0.374l0.649,-0.374l0.647,0.374l0.648,0.374Z" style="fill:#5e5b5d;"/><path d="M94.921,97.559c0.22,0.382 0.09,0.872 -0.293,1.093c-0.382,0.221 -0.872,0.091 -1.092,-0.294c-0.222,-0.382 -0.091,-0.871 0.293,-1.092c0.382,-0.22 0.872,-0.089 1.092,0.293" style="fill:#464442;"/><path d="M85.656,91.312c0.674,0.388 1.536,0.158 1.925,-0.517c0.389,-0.672 0.158,-1.535 -0.516,-1.923c-0.673,-0.389 -1.534,-0.158 -1.923,0.516c-0.389,0.673 -0.159,1.535 0.514,1.924" style="fill:#464442;"/><path d="M87.109,88.795l0.374,0.65l0.375,0.647l-0.375,0.648l-0.374,0.648l-1.496,-0l-0.374,-0.648l-0.375,-0.648l0.375,-0.649l0.374,-0.648l1.496,0Z" style="fill:#5e5b5d;"/><path d="M86.761,89.399c0.382,0.22 0.513,0.709 0.293,1.091c-0.221,0.385 -0.71,0.516 -1.092,0.294c-0.384,-0.22 -0.515,-0.709 -0.294,-1.093c0.221,-0.382 0.711,-0.513 1.093,-0.292" style="fill:#464442;"/><path d="M110.43,156.882l-69.643,0c0.059,2.071 0.125,4.162 0.2,6.275l69.242,-0c0.075,-2.113 0.142,-4.204 0.201,-6.275Z" style="fill:#ec5247;"/><path d="M0,220.811l28.049,-22.761l14.633,-3.146c-0.418,-6.059 -0.777,-11.965 -1.074,-17.723l-20.357,10.626l-21.251,33.004Z" style="fill:#4a4747;"/><path d="M151.216,220.811l-28.049,-22.761l-14.633,-3.146c0.418,-6.059 0.777,-11.965 1.075,-17.723l20.356,10.626l21.251,33.004Z" style="fill:#4a4747;"/><path d="M78.657,160.628c-0.261,-0.175 -3.049,-3.746 -3.049,-3.746l0,63.929l2.236,-13.165l0.813,-47.018Z" style="fill:#4a4747;"/><path d="M72.56,160.628c0.261,-0.175 3.049,-3.746 3.049,-3.746l-0,63.929l-2.236,-13.165l-0.813,-47.018Z" style="fill:#595857;"/><path d="M75.615,125.808c10.187,-0 18.495,-8.302 18.495,-18.483c0,-10.179 -8.308,-18.482 -18.495,-18.482c-10.187,0 -18.496,8.303 -18.496,18.482c-0,10.181 8.309,18.483 18.496,18.483" style="fill:#9adaf1;"/><path d="M59.733,104.336c-2.831,10.709 12.825,18.922 11.225,8.721c-0.6,-3.827 -2.618,-8.878 -0.915,-12.413c1.704,-3.535 4.085,-6.472 2.265,-6.838c-6.374,-1.281 -11.394,6.06 -12.575,10.53" style="fill:#c1e4f2;"/><path d="M111.613,160.544l0,6.969l24.391,15.099l10.453,22.068l-5.807,-23.23l-29.037,-20.906Z" style="fill:#706f6e;"/></svg>